<?xml version="1.0" encoding="utf-8" standalone="no"?>
<!DOCTYPE svg PUBLIC "-//W3C//DTD SVG 1.1//EN"
  "http://www.w3.org/Graphics/SVG/1.1/DTD/svg11.dtd">
<svg xmlns:xlink="http://www.w3.org/1999/xlink" width="486.635pt" height="459.480156pt" viewBox="0 0 486.635 459.480156" xmlns="http://www.w3.org/2000/svg" version="1.1">
 <metadata>
  <rdf:RDF xmlns:dc="http://purl.org/dc/elements/1.1/" xmlns:cc="http://creativecommons.org/ns#" xmlns:rdf="http://www.w3.org/1999/02/22-rdf-syntax-ns#">
   <cc:Work>
    <dc:type rdf:resource="http://purl.org/dc/dcmitype/StillImage"/>
    <dc:date>2026-05-31T06:40:48.457153</dc:date>
    <dc:format>image/svg+xml</dc:format>
    <dc:creator>
     <cc:Agent>
      <dc:title>Matplotlib v3.10.9, https://matplotlib.org/</dc:title>
     </cc:Agent>
    </dc:creator>
   </cc:Work>
  </rdf:RDF>
 </metadata>
 <defs>
  <style type="text/css">*{stroke-linejoin: round; stroke-linecap: butt}</style>
 </defs>
 <g id="figure_1">
  <g id="patch_1">
   <path d="M 0 459.480156 
L 486.635 459.480156 
L 486.635 0 
L 0 0 
z
" style="fill: #1a1b27"/>
  </g>
  <g id="axes_1">
   <g id="patch_2">
    <path d="M 436.851328 238.917187 
C 436.851328 213.436088 431.832107 188.20276 422.080913 164.661294 
C 412.329718 141.119828 398.036186 119.728046 380.018328 101.710188 
C 362.00047 83.69233 340.608687 69.398798 317.067221 59.647603 
C 293.525755 49.896408 268.292427 44.877187 242.811328 44.877187 
C 217.330229 44.877187 192.096901 49.896408 168.555435 59.647603 
C 145.013969 69.398798 123.622186 83.69233 105.604328 101.710188 
C 87.58647 119.728046 73.292938 141.119828 63.541744 164.661294 
C 53.790549 188.20276 48.771328 213.436088 48.771328 238.917187 
C 48.771328 264.398287 53.790549 289.631615 63.541744 313.173081 
C 73.292938 336.714547 87.58647 358.106329 105.604328 376.124187 
C 123.622186 394.142045 145.013969 408.435577 168.555435 418.186772 
C 192.096901 427.937967 217.330229 432.957187 242.811328 432.957187 
C 268.292427 432.957187 293.525755 427.937967 317.067221 418.186772 
C 340.608687 408.435577 362.00047 394.142045 380.018328 376.124187 
C 398.036186 358.106329 412.329718 336.714547 422.080913 313.173081 
C 431.832107 289.631615 436.851328 264.398287 436.851328 238.917187 
M 242.811328 238.917187 
C 242.811328 238.917187 242.811328 238.917187 242.811328 238.917187 
C 242.811328 238.917187 242.811328 238.917187 242.811328 238.917187 
C 242.811328 238.917187 242.811328 238.917187 242.811328 238.917187 
C 242.811328 238.917187 242.811328 238.917187 242.811328 238.917187 
C 242.811328 238.917187 242.811328 238.917187 242.811328 238.917187 
C 242.811328 238.917187 242.811328 238.917187 242.811328 238.917187 
C 242.811328 238.917187 242.811328 238.917187 242.811328 238.917187 
C 242.811328 238.917187 242.811328 238.917187 242.811328 238.917187 
C 242.811328 238.917187 242.811328 238.917187 242.811328 238.917187 
C 242.811328 238.917187 242.811328 238.917187 242.811328 238.917187 
C 242.811328 238.917187 242.811328 238.917187 242.811328 238.917187 
C 242.811328 238.917187 242.811328 238.917187 242.811328 238.917187 
C 242.811328 238.917187 242.811328 238.917187 242.811328 238.917187 
C 242.811328 238.917187 242.811328 238.917187 242.811328 238.917187 
C 242.811328 238.917187 242.811328 238.917187 242.811328 238.917187 
C 242.811328 238.917187 242.811328 238.917187 242.811328 238.917187 
z
" style="fill: #1a1b27"/>
   </g>
   <g id="patch_3">
    <path d="M 436.851328 238.917187 
L 352.576928 129.151588 
L 242.811328 122.493187 
L 229.090628 225.196488 
L 223.407328 238.917187 
L 229.090628 252.637887 
L 242.811328 258.321187 
L 256.532028 252.637887 
z
" clip-path="url(#p86f7112326)" style="fill: #7aa2f7; opacity: 0.25; stroke: #7aa2f7; stroke-linejoin: miter"/>
   </g>
   <g id="matplotlib.axis_1">
    <g id="xtick_1">
     <g id="line2d_1">
      <path d="M 242.811328 238.917187 
L 436.851328 238.917187 
" clip-path="url(#p86f7112326)" style="fill: none; stroke: #414868; stroke-opacity: 0.6; stroke-width: 0.8; stroke-linecap: square"/>
     </g>
     <g id="text_1">
      <!-- TypeScript -->
      <g style="fill: #c0caf5" transform="translate(422.267656 241.9525) scale(0.11 -0.11)">
       <defs>
        <path id="DejaVuSans-54" d="M -19 4666 
L 3928 4666 
L 3928 4134 
L 2272 4134 
L 2272 0 
L 1638 0 
L 1638 4134 
L -19 4134 
L -19 4666 
z
" transform="scale(0.015625)"/>
        <path id="DejaVuSans-79" d="M 2059 -325 
Q 1816 -950 1584 -1140 
Q 1353 -1331 966 -1331 
L 506 -1331 
L 506 -850 
L 844 -850 
Q 1081 -850 1212 -737 
Q 1344 -625 1503 -206 
L 1606 56 
L 191 3500 
L 800 3500 
L 1894 763 
L 2988 3500 
L 3597 3500 
L 2059 -325 
z
" transform="scale(0.015625)"/>
        <path id="DejaVuSans-70" d="M 1159 525 
L 1159 -1331 
L 581 -1331 
L 581 3500 
L 1159 3500 
L 1159 2969 
Q 1341 3281 1617 3432 
Q 1894 3584 2278 3584 
Q 2916 3584 3314 3078 
Q 3713 2572 3713 1747 
Q 3713 922 3314 415 
Q 2916 -91 2278 -91 
Q 1894 -91 1617 61 
Q 1341 213 1159 525 
z
M 3116 1747 
Q 3116 2381 2855 2742 
Q 2594 3103 2138 3103 
Q 1681 3103 1420 2742 
Q 1159 2381 1159 1747 
Q 1159 1113 1420 752 
Q 1681 391 2138 391 
Q 2594 391 2855 752 
Q 3116 1113 3116 1747 
z
" transform="scale(0.015625)"/>
        <path id="DejaVuSans-65" d="M 3597 1894 
L 3597 1613 
L 953 1613 
Q 991 1019 1311 708 
Q 1631 397 2203 397 
Q 2534 397 2845 478 
Q 3156 559 3463 722 
L 3463 178 
Q 3153 47 2828 -22 
Q 2503 -91 2169 -91 
Q 1331 -91 842 396 
Q 353 884 353 1716 
Q 353 2575 817 3079 
Q 1281 3584 2069 3584 
Q 2775 3584 3186 3129 
Q 3597 2675 3597 1894 
z
M 3022 2063 
Q 3016 2534 2758 2815 
Q 2500 3097 2075 3097 
Q 1594 3097 1305 2825 
Q 1016 2553 972 2059 
L 3022 2063 
z
" transform="scale(0.015625)"/>
        <path id="DejaVuSans-53" d="M 3425 4513 
L 3425 3897 
Q 3066 4069 2747 4153 
Q 2428 4238 2131 4238 
Q 1616 4238 1336 4038 
Q 1056 3838 1056 3469 
Q 1056 3159 1242 3001 
Q 1428 2844 1947 2747 
L 2328 2669 
Q 3034 2534 3370 2195 
Q 3706 1856 3706 1288 
Q 3706 609 3251 259 
Q 2797 -91 1919 -91 
Q 1588 -91 1214 -16 
Q 841 59 441 206 
L 441 856 
Q 825 641 1194 531 
Q 1563 422 1919 422 
Q 2459 422 2753 634 
Q 3047 847 3047 1241 
Q 3047 1584 2836 1778 
Q 2625 1972 2144 2069 
L 1759 2144 
Q 1053 2284 737 2584 
Q 422 2884 422 3419 
Q 422 4038 858 4394 
Q 1294 4750 2059 4750 
Q 2388 4750 2728 4690 
Q 3069 4631 3425 4513 
z
" transform="scale(0.015625)"/>
        <path id="DejaVuSans-63" d="M 3122 3366 
L 3122 2828 
Q 2878 2963 2633 3030 
Q 2388 3097 2138 3097 
Q 1578 3097 1268 2742 
Q 959 2388 959 1747 
Q 959 1106 1268 751 
Q 1578 397 2138 397 
Q 2388 397 2633 464 
Q 2878 531 3122 666 
L 3122 134 
Q 2881 22 2623 -34 
Q 2366 -91 2075 -91 
Q 1284 -91 818 406 
Q 353 903 353 1747 
Q 353 2603 823 3093 
Q 1294 3584 2113 3584 
Q 2378 3584 2631 3529 
Q 2884 3475 3122 3366 
z
" transform="scale(0.015625)"/>
        <path id="DejaVuSans-72" d="M 2631 2963 
Q 2534 3019 2420 3045 
Q 2306 3072 2169 3072 
Q 1681 3072 1420 2755 
Q 1159 2438 1159 1844 
L 1159 0 
L 581 0 
L 581 3500 
L 1159 3500 
L 1159 2956 
Q 1341 3275 1631 3429 
Q 1922 3584 2338 3584 
Q 2397 3584 2469 3576 
Q 2541 3569 2628 3553 
L 2631 2963 
z
" transform="scale(0.015625)"/>
        <path id="DejaVuSans-69" d="M 603 3500 
L 1178 3500 
L 1178 0 
L 603 0 
L 603 3500 
z
M 603 4863 
L 1178 4863 
L 1178 4134 
L 603 4134 
L 603 4863 
z
" transform="scale(0.015625)"/>
        <path id="DejaVuSans-74" d="M 1172 4494 
L 1172 3500 
L 2356 3500 
L 2356 3053 
L 1172 3053 
L 1172 1153 
Q 1172 725 1289 603 
Q 1406 481 1766 481 
L 2356 481 
L 2356 0 
L 1766 0 
Q 1100 0 847 248 
Q 594 497 594 1153 
L 594 3053 
L 172 3053 
L 172 3500 
L 594 3500 
L 594 4494 
L 1172 4494 
z
" transform="scale(0.015625)"/>
       </defs>
       <use xlink:href="#DejaVuSans-54"/>
       <use xlink:href="#DejaVuSans-79" transform="translate(45.458984 0)"/>
       <use xlink:href="#DejaVuSans-70" transform="translate(104.638672 0)"/>
       <use xlink:href="#DejaVuSans-65" transform="translate(168.115234 0)"/>
       <use xlink:href="#DejaVuSans-53" transform="translate(229.638672 0)"/>
       <use xlink:href="#DejaVuSans-63" transform="translate(293.115234 0)"/>
       <use xlink:href="#DejaVuSans-72" transform="translate(348.095703 0)"/>
       <use xlink:href="#DejaVuSans-69" transform="translate(389.208984 0)"/>
       <use xlink:href="#DejaVuSans-70" transform="translate(416.992188 0)"/>
       <use xlink:href="#DejaVuSans-74" transform="translate(480.46875 0)"/>
      </g>
     </g>
    </g>
    <g id="xtick_2">
     <g id="line2d_2">
      <path d="M 242.811328 238.917187 
L 380.018328 101.710188 
" clip-path="url(#p86f7112326)" style="fill: none; stroke: #414868; stroke-opacity: 0.6; stroke-width: 0.8; stroke-linecap: square"/>
     </g>
     <g id="text_2">
      <!-- Python -->
      <g style="fill: #c0caf5" transform="translate(370.853448 94.846005) scale(0.11 -0.11)">
       <defs>
        <path id="DejaVuSans-50" d="M 1259 4147 
L 1259 2394 
L 2053 2394 
Q 2494 2394 2734 2622 
Q 2975 2850 2975 3272 
Q 2975 3691 2734 3919 
Q 2494 4147 2053 4147 
L 1259 4147 
z
M 628 4666 
L 2053 4666 
Q 2838 4666 3239 4311 
Q 3641 3956 3641 3272 
Q 3641 2581 3239 2228 
Q 2838 1875 2053 1875 
L 1259 1875 
L 1259 0 
L 628 0 
L 628 4666 
z
" transform="scale(0.015625)"/>
        <path id="DejaVuSans-68" d="M 3513 2113 
L 3513 0 
L 2938 0 
L 2938 2094 
Q 2938 2591 2744 2837 
Q 2550 3084 2163 3084 
Q 1697 3084 1428 2787 
Q 1159 2491 1159 1978 
L 1159 0 
L 581 0 
L 581 4863 
L 1159 4863 
L 1159 2956 
Q 1366 3272 1645 3428 
Q 1925 3584 2291 3584 
Q 2894 3584 3203 3211 
Q 3513 2838 3513 2113 
z
" transform="scale(0.015625)"/>
        <path id="DejaVuSans-6f" d="M 1959 3097 
Q 1497 3097 1228 2736 
Q 959 2375 959 1747 
Q 959 1119 1226 758 
Q 1494 397 1959 397 
Q 2419 397 2687 759 
Q 2956 1122 2956 1747 
Q 2956 2369 2687 2733 
Q 2419 3097 1959 3097 
z
M 1959 3584 
Q 2709 3584 3137 3096 
Q 3566 2609 3566 1747 
Q 3566 888 3137 398 
Q 2709 -91 1959 -91 
Q 1206 -91 779 398 
Q 353 888 353 1747 
Q 353 2609 779 3096 
Q 1206 3584 1959 3584 
z
" transform="scale(0.015625)"/>
        <path id="DejaVuSans-6e" d="M 3513 2113 
L 3513 0 
L 2938 0 
L 2938 2094 
Q 2938 2591 2744 2837 
Q 2550 3084 2163 3084 
Q 1697 3084 1428 2787 
Q 1159 2491 1159 1978 
L 1159 0 
L 581 0 
L 581 3500 
L 1159 3500 
L 1159 2956 
Q 1366 3272 1645 3428 
Q 1925 3584 2291 3584 
Q 2894 3584 3203 3211 
Q 3513 2838 3513 2113 
z
" transform="scale(0.015625)"/>
       </defs>
       <use xlink:href="#DejaVuSans-50"/>
       <use xlink:href="#DejaVuSans-79" transform="translate(60.302734 0)"/>
       <use xlink:href="#DejaVuSans-74" transform="translate(119.482422 0)"/>
       <use xlink:href="#DejaVuSans-68" transform="translate(158.691406 0)"/>
       <use xlink:href="#DejaVuSans-6f" transform="translate(222.070312 0)"/>
       <use xlink:href="#DejaVuSans-6e" transform="translate(283.251953 0)"/>
      </g>
     </g>
    </g>
    <g id="xtick_3">
     <g id="line2d_3">
      <path d="M 242.811328 238.917187 
L 242.811328 44.877187 
" clip-path="url(#p86f7112326)" style="fill: none; stroke: #414868; stroke-opacity: 0.6; stroke-width: 0.8; stroke-linecap: square"/>
     </g>
     <g id="text_3">
      <!-- Dart -->
      <g style="fill: #c0caf5" transform="translate(230.788672 33.9125) scale(0.11 -0.11)">
       <defs>
        <path id="DejaVuSans-44" d="M 1259 4147 
L 1259 519 
L 2022 519 
Q 2988 519 3436 956 
Q 3884 1394 3884 2338 
Q 3884 3275 3436 3711 
Q 2988 4147 2022 4147 
L 1259 4147 
z
M 628 4666 
L 1925 4666 
Q 3281 4666 3915 4102 
Q 4550 3538 4550 2338 
Q 4550 1131 3912 565 
Q 3275 0 1925 0 
L 628 0 
L 628 4666 
z
" transform="scale(0.015625)"/>
        <path id="DejaVuSans-61" d="M 2194 1759 
Q 1497 1759 1228 1600 
Q 959 1441 959 1056 
Q 959 750 1161 570 
Q 1363 391 1709 391 
Q 2188 391 2477 730 
Q 2766 1069 2766 1631 
L 2766 1759 
L 2194 1759 
z
M 3341 1997 
L 3341 0 
L 2766 0 
L 2766 531 
Q 2569 213 2275 61 
Q 1981 -91 1556 -91 
Q 1019 -91 701 211 
Q 384 513 384 1019 
Q 384 1609 779 1909 
Q 1175 2209 1959 2209 
L 2766 2209 
L 2766 2266 
Q 2766 2663 2505 2880 
Q 2244 3097 1772 3097 
Q 1472 3097 1187 3025 
Q 903 2953 641 2809 
L 641 3341 
Q 956 3463 1253 3523 
Q 1550 3584 1831 3584 
Q 2591 3584 2966 3190 
Q 3341 2797 3341 1997 
z
" transform="scale(0.015625)"/>
       </defs>
       <use xlink:href="#DejaVuSans-44"/>
       <use xlink:href="#DejaVuSans-61" transform="translate(77.001953 0)"/>
       <use xlink:href="#DejaVuSans-72" transform="translate(138.28125 0)"/>
       <use xlink:href="#DejaVuSans-74" transform="translate(179.394531 0)"/>
      </g>
     </g>
    </g>
    <g id="xtick_4">
     <g id="line2d_4">
      <path d="M 242.811328 238.917187 
L 105.604328 101.710188 
" clip-path="url(#p86f7112326)" style="fill: none; stroke: #414868; stroke-opacity: 0.6; stroke-width: 0.8; stroke-linecap: square"/>
     </g>
     <g id="text_4">
      <!-- HTML/CSS -->
      <g style="fill: #c0caf5" transform="translate(67.722724 94.846005) scale(0.11 -0.11)">
       <defs>
        <path id="DejaVuSans-48" d="M 628 4666 
L 1259 4666 
L 1259 2753 
L 3553 2753 
L 3553 4666 
L 4184 4666 
L 4184 0 
L 3553 0 
L 3553 2222 
L 1259 2222 
L 1259 0 
L 628 0 
L 628 4666 
z
" transform="scale(0.015625)"/>
        <path id="DejaVuSans-4d" d="M 628 4666 
L 1569 4666 
L 2759 1491 
L 3956 4666 
L 4897 4666 
L 4897 0 
L 4281 0 
L 4281 4097 
L 3078 897 
L 2444 897 
L 1241 4097 
L 1241 0 
L 628 0 
L 628 4666 
z
" transform="scale(0.015625)"/>
        <path id="DejaVuSans-4c" d="M 628 4666 
L 1259 4666 
L 1259 531 
L 3531 531 
L 3531 0 
L 628 0 
L 628 4666 
z
" transform="scale(0.015625)"/>
        <path id="DejaVuSans-2f" d="M 1625 4666 
L 2156 4666 
L 531 -594 
L 0 -594 
L 1625 4666 
z
" transform="scale(0.015625)"/>
        <path id="DejaVuSans-43" d="M 4122 4306 
L 4122 3641 
Q 3803 3938 3442 4084 
Q 3081 4231 2675 4231 
Q 1875 4231 1450 3742 
Q 1025 3253 1025 2328 
Q 1025 1406 1450 917 
Q 1875 428 2675 428 
Q 3081 428 3442 575 
Q 3803 722 4122 1019 
L 4122 359 
Q 3791 134 3420 21 
Q 3050 -91 2638 -91 
Q 1578 -91 968 557 
Q 359 1206 359 2328 
Q 359 3453 968 4101 
Q 1578 4750 2638 4750 
Q 3056 4750 3426 4639 
Q 3797 4528 4122 4306 
z
" transform="scale(0.015625)"/>
       </defs>
       <use xlink:href="#DejaVuSans-48"/>
       <use xlink:href="#DejaVuSans-54" transform="translate(75.195312 0)"/>
       <use xlink:href="#DejaVuSans-4d" transform="translate(136.279297 0)"/>
       <use xlink:href="#DejaVuSans-4c" transform="translate(222.558594 0)"/>
       <use xlink:href="#DejaVuSans-2f" transform="translate(278.271484 0)"/>
       <use xlink:href="#DejaVuSans-43" transform="translate(311.962891 0)"/>
       <use xlink:href="#DejaVuSans-53" transform="translate(381.787109 0)"/>
       <use xlink:href="#DejaVuSans-53" transform="translate(445.263672 0)"/>
      </g>
     </g>
    </g>
    <g id="xtick_5">
     <g id="line2d_5">
      <path d="M 242.811328 238.917187 
L 48.771328 238.917187 
" clip-path="url(#p86f7112326)" style="fill: none; stroke: #414868; stroke-opacity: 0.6; stroke-width: 0.8; stroke-linecap: square"/>
     </g>
     <g id="text_5">
      <!-- JavaScript -->
      <g style="fill: #c0caf5" transform="translate(7.2 241.9525) scale(0.11 -0.11)">
       <defs>
        <path id="DejaVuSans-4a" d="M 628 4666 
L 1259 4666 
L 1259 325 
Q 1259 -519 939 -900 
Q 619 -1281 -91 -1281 
L -331 -1281 
L -331 -750 
L -134 -750 
Q 284 -750 456 -515 
Q 628 -281 628 325 
L 628 4666 
z
" transform="scale(0.015625)"/>
        <path id="DejaVuSans-76" d="M 191 3500 
L 800 3500 
L 1894 563 
L 2988 3500 
L 3597 3500 
L 2284 0 
L 1503 0 
L 191 3500 
z
" transform="scale(0.015625)"/>
       </defs>
       <use xlink:href="#DejaVuSans-4a"/>
       <use xlink:href="#DejaVuSans-61" transform="translate(29.492188 0)"/>
       <use xlink:href="#DejaVuSans-76" transform="translate(90.771484 0)"/>
       <use xlink:href="#DejaVuSans-61" transform="translate(149.951172 0)"/>
       <use xlink:href="#DejaVuSans-53" transform="translate(211.230469 0)"/>
       <use xlink:href="#DejaVuSans-63" transform="translate(274.707031 0)"/>
       <use xlink:href="#DejaVuSans-72" transform="translate(329.6875 0)"/>
       <use xlink:href="#DejaVuSans-69" transform="translate(370.800781 0)"/>
       <use xlink:href="#DejaVuSans-70" transform="translate(398.583984 0)"/>
       <use xlink:href="#DejaVuSans-74" transform="translate(462.060547 0)"/>
      </g>
     </g>
    </g>
    <g id="xtick_6">
     <g id="line2d_6">
      <path d="M 242.811328 238.917187 
L 105.604328 376.124187 
" clip-path="url(#p86f7112326)" style="fill: none; stroke: #414868; stroke-opacity: 0.6; stroke-width: 0.8; stroke-linecap: square"/>
     </g>
     <g id="text_6">
      <!-- Flutter -->
      <g style="fill: #c0caf5" transform="translate(77.570302 389.058995) scale(0.11 -0.11)">
       <defs>
        <path id="DejaVuSans-46" d="M 628 4666 
L 3309 4666 
L 3309 4134 
L 1259 4134 
L 1259 2759 
L 3109 2759 
L 3109 2228 
L 1259 2228 
L 1259 0 
L 628 0 
L 628 4666 
z
" transform="scale(0.015625)"/>
        <path id="DejaVuSans-6c" d="M 603 4863 
L 1178 4863 
L 1178 0 
L 603 0 
L 603 4863 
z
" transform="scale(0.015625)"/>
        <path id="DejaVuSans-75" d="M 544 1381 
L 544 3500 
L 1119 3500 
L 1119 1403 
Q 1119 906 1312 657 
Q 1506 409 1894 409 
Q 2359 409 2629 706 
Q 2900 1003 2900 1516 
L 2900 3500 
L 3475 3500 
L 3475 0 
L 2900 0 
L 2900 538 
Q 2691 219 2414 64 
Q 2138 -91 1772 -91 
Q 1169 -91 856 284 
Q 544 659 544 1381 
z
M 1991 3584 
L 1991 3584 
z
" transform="scale(0.015625)"/>
       </defs>
       <use xlink:href="#DejaVuSans-46"/>
       <use xlink:href="#DejaVuSans-6c" transform="translate(57.519531 0)"/>
       <use xlink:href="#DejaVuSans-75" transform="translate(85.302734 0)"/>
       <use xlink:href="#DejaVuSans-74" transform="translate(148.681641 0)"/>
       <use xlink:href="#DejaVuSans-74" transform="translate(187.890625 0)"/>
       <use xlink:href="#DejaVuSans-65" transform="translate(227.099609 0)"/>
       <use xlink:href="#DejaVuSans-72" transform="translate(288.623047 0)"/>
      </g>
     </g>
    </g>
    <g id="xtick_7">
     <g id="line2d_7">
      <path d="M 242.811328 238.917187 
L 242.811328 432.957187 
" clip-path="url(#p86f7112326)" style="fill: none; stroke: #414868; stroke-opacity: 0.6; stroke-width: 0.8; stroke-linecap: square"/>
     </g>
     <g id="text_7">
      <!-- SQL -->
      <g style="fill: #c0caf5" transform="translate(231.925625 449.9925) scale(0.11 -0.11)">
       <defs>
        <path id="DejaVuSans-51" d="M 2522 4238 
Q 1834 4238 1429 3725 
Q 1025 3213 1025 2328 
Q 1025 1447 1429 934 
Q 1834 422 2522 422 
Q 3209 422 3611 934 
Q 4013 1447 4013 2328 
Q 4013 3213 3611 3725 
Q 3209 4238 2522 4238 
z
M 3406 84 
L 4238 -825 
L 3475 -825 
L 2784 -78 
Q 2681 -84 2626 -87 
Q 2572 -91 2522 -91 
Q 1538 -91 948 567 
Q 359 1225 359 2328 
Q 359 3434 948 4092 
Q 1538 4750 2522 4750 
Q 3503 4750 4090 4092 
Q 4678 3434 4678 2328 
Q 4678 1516 4351 937 
Q 4025 359 3406 84 
z
" transform="scale(0.015625)"/>
       </defs>
       <use xlink:href="#DejaVuSans-53"/>
       <use xlink:href="#DejaVuSans-51" transform="translate(63.476562 0)"/>
       <use xlink:href="#DejaVuSans-4c" transform="translate(142.1875 0)"/>
      </g>
     </g>
    </g>
    <g id="xtick_8">
     <g id="line2d_8">
      <path d="M 242.811328 238.917187 
L 380.018328 376.124187 
" clip-path="url(#p86f7112326)" style="fill: none; stroke: #414868; stroke-opacity: 0.6; stroke-width: 0.8; stroke-linecap: square"/>
     </g>
     <g id="text_8">
      <!-- Firebase -->
      <g style="fill: #c0caf5" transform="translate(366.992276 389.058995) scale(0.11 -0.11)">
       <defs>
        <path id="DejaVuSans-62" d="M 3116 1747 
Q 3116 2381 2855 2742 
Q 2594 3103 2138 3103 
Q 1681 3103 1420 2742 
Q 1159 2381 1159 1747 
Q 1159 1113 1420 752 
Q 1681 391 2138 391 
Q 2594 391 2855 752 
Q 3116 1113 3116 1747 
z
M 1159 2969 
Q 1341 3281 1617 3432 
Q 1894 3584 2278 3584 
Q 2916 3584 3314 3078 
Q 3713 2572 3713 1747 
Q 3713 922 3314 415 
Q 2916 -91 2278 -91 
Q 1894 -91 1617 61 
Q 1341 213 1159 525 
L 1159 0 
L 581 0 
L 581 4863 
L 1159 4863 
L 1159 2969 
z
" transform="scale(0.015625)"/>
        <path id="DejaVuSans-73" d="M 2834 3397 
L 2834 2853 
Q 2591 2978 2328 3040 
Q 2066 3103 1784 3103 
Q 1356 3103 1142 2972 
Q 928 2841 928 2578 
Q 928 2378 1081 2264 
Q 1234 2150 1697 2047 
L 1894 2003 
Q 2506 1872 2764 1633 
Q 3022 1394 3022 966 
Q 3022 478 2636 193 
Q 2250 -91 1575 -91 
Q 1294 -91 989 -36 
Q 684 19 347 128 
L 347 722 
Q 666 556 975 473 
Q 1284 391 1588 391 
Q 1994 391 2212 530 
Q 2431 669 2431 922 
Q 2431 1156 2273 1281 
Q 2116 1406 1581 1522 
L 1381 1569 
Q 847 1681 609 1914 
Q 372 2147 372 2553 
Q 372 3047 722 3315 
Q 1072 3584 1716 3584 
Q 2034 3584 2315 3537 
Q 2597 3491 2834 3397 
z
" transform="scale(0.015625)"/>
       </defs>
       <use xlink:href="#DejaVuSans-46"/>
       <use xlink:href="#DejaVuSans-69" transform="translate(50.269531 0)"/>
       <use xlink:href="#DejaVuSans-72" transform="translate(78.052734 0)"/>
       <use xlink:href="#DejaVuSans-65" transform="translate(116.916016 0)"/>
       <use xlink:href="#DejaVuSans-62" transform="translate(178.439453 0)"/>
       <use xlink:href="#DejaVuSans-61" transform="translate(241.916016 0)"/>
       <use xlink:href="#DejaVuSans-73" transform="translate(303.195312 0)"/>
       <use xlink:href="#DejaVuSans-65" transform="translate(355.294922 0)"/>
      </g>
     </g>
    </g>
   </g>
   <g id="matplotlib.axis_2">
    <g id="ytick_1">
     <g id="line2d_9">
      <path d="M 281.619328 238.917187 
C 281.619328 233.820968 280.615484 228.774302 278.665245 224.066009 
C 276.715006 219.357716 273.8563 215.079359 270.252728 211.475788 
C 266.649156 207.872216 262.3708 205.01351 257.662507 203.063271 
C 252.954214 201.113032 247.907548 200.109187 242.811328 200.109187 
C 237.715108 200.109187 232.668443 201.113032 227.960149 203.063271 
C 223.251856 205.01351 218.9735 207.872216 215.369928 211.475788 
C 211.766357 215.079359 208.90765 219.357716 206.957411 224.066009 
C 205.007172 228.774302 204.003328 233.820968 204.003328 238.917187 
C 204.003328 244.013407 205.007172 249.060073 206.957411 253.768366 
C 208.90765 258.476659 211.766357 262.755016 215.369928 266.358587 
C 218.9735 269.962159 223.251856 272.820865 227.960149 274.771104 
C 232.668443 276.721343 237.715108 277.725187 242.811328 277.725187 
C 247.907548 277.725187 252.954214 276.721343 257.662507 274.771104 
C 262.3708 272.820865 266.649156 269.962159 270.252728 266.358587 
C 273.8563 262.755016 276.715006 258.476659 278.665245 253.768366 
C 280.615484 249.060073 281.619328 244.013407 281.619328 238.917187 
" clip-path="url(#p86f7112326)" style="fill: none; stroke: #414868; stroke-opacity: 0.6; stroke-width: 0.8; stroke-linecap: square"/>
     </g>
     <g id="text_9">
      <!-- 2 -->
      <g style="fill: #414868" transform="translate(278.665245 222.19429) scale(0.09 -0.09)">
       <defs>
        <path id="DejaVuSans-32" d="M 1228 531 
L 3431 531 
L 3431 0 
L 469 0 
L 469 531 
Q 828 903 1448 1529 
Q 2069 2156 2228 2338 
Q 2531 2678 2651 2914 
Q 2772 3150 2772 3378 
Q 2772 3750 2511 3984 
Q 2250 4219 1831 4219 
Q 1534 4219 1204 4116 
Q 875 4013 500 3803 
L 500 4441 
Q 881 4594 1212 4672 
Q 1544 4750 1819 4750 
Q 2544 4750 2975 4387 
Q 3406 4025 3406 3419 
Q 3406 3131 3298 2873 
Q 3191 2616 2906 2266 
Q 2828 2175 2409 1742 
Q 1991 1309 1228 531 
z
" transform="scale(0.015625)"/>
       </defs>
       <use xlink:href="#DejaVuSans-32"/>
      </g>
     </g>
    </g>
    <g id="ytick_2">
     <g id="line2d_10">
      <path d="M 320.427328 238.917187 
C 320.427328 228.724748 318.41964 218.631417 314.519162 209.21483 
C 310.618684 199.798244 304.901271 191.241531 297.694128 184.034388 
C 290.486985 176.827244 281.930272 171.109832 272.513685 167.209354 
C 263.097099 163.308876 253.003768 161.301187 242.811328 161.301187 
C 232.618888 161.301187 222.525557 163.308876 213.108971 167.209354 
C 203.692384 171.109832 195.135671 176.827244 187.928528 184.034388 
C 180.721385 191.241531 175.003972 199.798244 171.103494 209.21483 
C 167.203017 218.631417 165.195328 228.724748 165.195328 238.917187 
C 165.195328 249.109627 167.203017 259.202958 171.103494 268.619545 
C 175.003972 278.036131 180.721385 286.592844 187.928528 293.799987 
C 195.135671 301.007131 203.692384 306.724543 213.108971 310.625021 
C 222.525557 314.525499 232.618888 316.533187 242.811328 316.533187 
C 253.003768 316.533187 263.097099 314.525499 272.513685 310.625021 
C 281.930272 306.724543 290.486985 301.007131 297.694128 293.799987 
C 304.901271 286.592844 310.618684 278.036131 314.519162 268.619545 
C 318.41964 259.202958 320.427328 249.109627 320.427328 238.917187 
" clip-path="url(#p86f7112326)" style="fill: none; stroke: #414868; stroke-opacity: 0.6; stroke-width: 0.8; stroke-linecap: square"/>
     </g>
     <g id="text_10">
      <!-- 4 -->
      <g style="fill: #414868" transform="translate(314.519162 207.343111) scale(0.09 -0.09)">
       <defs>
        <path id="DejaVuSans-34" d="M 2419 4116 
L 825 1625 
L 2419 1625 
L 2419 4116 
z
M 2253 4666 
L 3047 4666 
L 3047 1625 
L 3713 1625 
L 3713 1100 
L 3047 1100 
L 3047 0 
L 2419 0 
L 2419 1100 
L 313 1100 
L 313 1709 
L 2253 4666 
z
" transform="scale(0.015625)"/>
       </defs>
       <use xlink:href="#DejaVuSans-34"/>
      </g>
     </g>
    </g>
    <g id="ytick_3">
     <g id="line2d_11">
      <path d="M 359.235328 238.917187 
C 359.235328 223.628528 356.223796 208.488531 350.373079 194.363652 
C 344.522362 180.238772 335.946243 167.403702 325.135528 156.592988 
C 314.324813 145.782273 301.489744 137.206154 287.364864 131.355437 
C 273.239984 125.50472 258.099988 122.493187 242.811328 122.493187 
C 227.522669 122.493187 212.382672 125.50472 198.257792 131.355437 
C 184.132913 137.206154 171.297843 145.782273 160.487128 156.592988 
C 149.676413 167.403702 141.100294 180.238772 135.249577 194.363652 
C 129.398861 208.488531 126.387328 223.628528 126.387328 238.917187 
C 126.387328 254.205847 129.398861 269.345844 135.249577 283.470723 
C 141.100294 297.595603 149.676413 310.430673 160.487128 321.241387 
C 171.297843 332.052102 184.132913 340.628221 198.257792 346.478938 
C 212.382672 352.329655 227.522669 355.341187 242.811328 355.341187 
C 258.099988 355.341187 273.239984 352.329655 287.364864 346.478938 
C 301.489744 340.628221 314.324813 332.052102 325.135528 321.241387 
C 335.946243 310.430673 344.522362 297.595603 350.373079 283.470723 
C 356.223796 269.345844 359.235328 254.205847 359.235328 238.917187 
" clip-path="url(#p86f7112326)" style="fill: none; stroke: #414868; stroke-opacity: 0.6; stroke-width: 0.8; stroke-linecap: square"/>
     </g>
     <g id="text_11">
      <!-- 6 -->
      <g style="fill: #414868" transform="translate(350.373079 192.491933) scale(0.09 -0.09)">
       <defs>
        <path id="DejaVuSans-36" d="M 2113 2584 
Q 1688 2584 1439 2293 
Q 1191 2003 1191 1497 
Q 1191 994 1439 701 
Q 1688 409 2113 409 
Q 2538 409 2786 701 
Q 3034 994 3034 1497 
Q 3034 2003 2786 2293 
Q 2538 2584 2113 2584 
z
M 3366 4563 
L 3366 3988 
Q 3128 4100 2886 4159 
Q 2644 4219 2406 4219 
Q 1781 4219 1451 3797 
Q 1122 3375 1075 2522 
Q 1259 2794 1537 2939 
Q 1816 3084 2150 3084 
Q 2853 3084 3261 2657 
Q 3669 2231 3669 1497 
Q 3669 778 3244 343 
Q 2819 -91 2113 -91 
Q 1303 -91 875 529 
Q 447 1150 447 2328 
Q 447 3434 972 4092 
Q 1497 4750 2381 4750 
Q 2619 4750 2861 4703 
Q 3103 4656 3366 4563 
z
" transform="scale(0.015625)"/>
       </defs>
       <use xlink:href="#DejaVuSans-36"/>
      </g>
     </g>
    </g>
    <g id="ytick_4">
     <g id="line2d_12">
      <path d="M 398.043328 238.917187 
C 398.043328 218.532308 394.027951 198.345646 386.226996 179.512473 
C 378.42604 160.6793 366.991214 143.565874 352.576928 129.151588 
C 338.162641 114.737301 321.049216 103.302476 302.216043 95.50152 
C 283.38287 87.700564 263.196208 83.685187 242.811328 83.685187 
C 222.426449 83.685187 202.239786 87.700564 183.406614 95.50152 
C 164.573441 103.302476 147.460015 114.737301 133.045728 129.151588 
C 118.631442 143.565874 107.196616 160.6793 99.395661 179.512473 
C 91.594705 198.345646 87.579328 218.532308 87.579328 238.917187 
C 87.579328 259.302067 91.594705 279.488729 99.395661 298.321902 
C 107.196616 317.155075 118.631442 334.268501 133.045728 348.682787 
C 147.460015 363.097074 164.573441 374.531899 183.406614 382.332855 
C 202.239786 390.133811 222.426449 394.149187 242.811328 394.149187 
C 263.196208 394.149187 283.38287 390.133811 302.216043 382.332855 
C 321.049216 374.531899 338.162641 363.097074 352.576928 348.682787 
C 366.991214 334.268501 378.42604 317.155075 386.226996 298.321902 
C 394.027951 279.488729 398.043328 259.302067 398.043328 238.917187 
" clip-path="url(#p86f7112326)" style="fill: none; stroke: #414868; stroke-opacity: 0.6; stroke-width: 0.8; stroke-linecap: square"/>
     </g>
     <g id="text_12">
      <!-- 8 -->
      <g style="fill: #414868" transform="translate(386.226996 177.640754) scale(0.09 -0.09)">
       <defs>
        <path id="DejaVuSans-38" d="M 2034 2216 
Q 1584 2216 1326 1975 
Q 1069 1734 1069 1313 
Q 1069 891 1326 650 
Q 1584 409 2034 409 
Q 2484 409 2743 651 
Q 3003 894 3003 1313 
Q 3003 1734 2745 1975 
Q 2488 2216 2034 2216 
z
M 1403 2484 
Q 997 2584 770 2862 
Q 544 3141 544 3541 
Q 544 4100 942 4425 
Q 1341 4750 2034 4750 
Q 2731 4750 3128 4425 
Q 3525 4100 3525 3541 
Q 3525 3141 3298 2862 
Q 3072 2584 2669 2484 
Q 3125 2378 3379 2068 
Q 3634 1759 3634 1313 
Q 3634 634 3220 271 
Q 2806 -91 2034 -91 
Q 1263 -91 848 271 
Q 434 634 434 1313 
Q 434 1759 690 2068 
Q 947 2378 1403 2484 
z
M 1172 3481 
Q 1172 3119 1398 2916 
Q 1625 2713 2034 2713 
Q 2441 2713 2670 2916 
Q 2900 3119 2900 3481 
Q 2900 3844 2670 4047 
Q 2441 4250 2034 4250 
Q 1625 4250 1398 4047 
Q 1172 3844 1172 3481 
z
" transform="scale(0.015625)"/>
       </defs>
       <use xlink:href="#DejaVuSans-38"/>
      </g>
     </g>
    </g>
    <g id="ytick_5">
     <g id="line2d_13">
      <path d="M 436.851328 238.917187 
C 436.851328 213.436088 431.832107 188.20276 422.080913 164.661294 
C 412.329718 141.119828 398.036186 119.728046 380.018328 101.710188 
C 362.00047 83.69233 340.608687 69.398798 317.067221 59.647603 
C 293.525755 49.896408 268.292427 44.877187 242.811328 44.877187 
C 217.330229 44.877187 192.096901 49.896408 168.555435 59.647603 
C 145.013969 69.398798 123.622186 83.69233 105.604328 101.710188 
C 87.58647 119.728046 73.292938 141.119828 63.541744 164.661294 
C 53.790549 188.20276 48.771328 213.436088 48.771328 238.917187 
C 48.771328 264.398287 53.790549 289.631615 63.541744 313.173081 
C 73.292938 336.714547 87.58647 358.106329 105.604328 376.124187 
C 123.622186 394.142045 145.013969 408.435577 168.555435 418.186772 
C 192.096901 427.937967 217.330229 432.957187 242.811328 432.957187 
C 268.292427 432.957187 293.525755 427.937967 317.067221 418.186772 
C 340.608687 408.435577 362.00047 394.142045 380.018328 376.124187 
C 398.036186 358.106329 412.329718 336.714547 422.080913 313.173081 
C 431.832107 289.631615 436.851328 264.398287 436.851328 238.917188 
" clip-path="url(#p86f7112326)" style="fill: none; stroke: #414868; stroke-opacity: 0.6; stroke-width: 0.8; stroke-linecap: square"/>
     </g>
     <g id="text_13">
      <!-- 10 -->
      <g style="fill: #414868" transform="translate(422.080913 162.789576) scale(0.09 -0.09)">
       <defs>
        <path id="DejaVuSans-31" d="M 794 531 
L 1825 531 
L 1825 4091 
L 703 3866 
L 703 4441 
L 1819 4666 
L 2450 4666 
L 2450 531 
L 3481 531 
L 3481 0 
L 794 0 
L 794 531 
z
" transform="scale(0.015625)"/>
        <path id="DejaVuSans-30" d="M 2034 4250 
Q 1547 4250 1301 3770 
Q 1056 3291 1056 2328 
Q 1056 1369 1301 889 
Q 1547 409 2034 409 
Q 2525 409 2770 889 
Q 3016 1369 3016 2328 
Q 3016 3291 2770 3770 
Q 2525 4250 2034 4250 
z
M 2034 4750 
Q 2819 4750 3233 4129 
Q 3647 3509 3647 2328 
Q 3647 1150 3233 529 
Q 2819 -91 2034 -91 
Q 1250 -91 836 529 
Q 422 1150 422 2328 
Q 422 3509 836 4129 
Q 1250 4750 2034 4750 
z
" transform="scale(0.015625)"/>
       </defs>
       <use xlink:href="#DejaVuSans-31"/>
       <use xlink:href="#DejaVuSans-30" transform="translate(63.623047 0)"/>
      </g>
     </g>
    </g>
   </g>
   <g id="line2d_14">
    <path d="M 436.851328 238.917187 
L 352.576928 129.151588 
L 242.811328 122.493187 
L 229.090628 225.196488 
L 223.407328 238.917187 
L 229.090628 252.637887 
L 242.811328 258.321187 
L 256.532028 252.637887 
L 436.851328 238.917187 
" clip-path="url(#p86f7112326)" style="fill: none; stroke: #7aa2f7; stroke-width: 2; stroke-linecap: square"/>
   </g>
   <g id="patch_4">
    <path d="M 436.851328 238.917187 
C 436.851328 213.436088 431.832107 188.20276 422.080913 164.661294 
C 412.329718 141.119828 398.036186 119.728046 380.018328 101.710188 
C 362.00047 83.69233 340.608687 69.398798 317.067221 59.647603 
C 293.525755 49.896408 268.292427 44.877187 242.811328 44.877187 
C 217.330229 44.877187 192.096901 49.896408 168.555435 59.647603 
C 145.013969 69.398798 123.622186 83.69233 105.604328 101.710188 
C 87.58647 119.728046 73.292938 141.119828 63.541744 164.661294 
C 53.790549 188.20276 48.771328 213.436088 48.771328 238.917187 
C 48.771328 264.398287 53.790549 289.631615 63.541744 313.173081 
C 73.292938 336.714547 87.58647 358.106329 105.604328 376.124187 
C 123.622186 394.142045 145.013969 408.435577 168.555435 418.186772 
C 192.096901 427.937967 217.330229 432.957187 242.811328 432.957187 
C 268.292427 432.957187 293.525755 427.937967 317.067221 418.186772 
C 340.608687 408.435577 362.00047 394.142045 380.018328 376.124187 
C 398.036186 358.106329 412.329718 336.714547 422.080913 313.173081 
C 431.832107 289.631615 436.851328 264.398287 436.851328 238.917188 
" style="fill: none; stroke: #414868; stroke-width: 0.8; stroke-linejoin: miter; stroke-linecap: square"/>
   </g>
   <g id="text_14">
    <!-- Tech Radar -->
    <g style="fill: #c0caf5" transform="translate(186.926953 20.877187) scale(0.18 -0.18)">
     <defs>
      <path id="DejaVuSans-Bold-54" d="M 31 4666 
L 4331 4666 
L 4331 3756 
L 2784 3756 
L 2784 0 
L 1581 0 
L 1581 3756 
L 31 3756 
L 31 4666 
z
" transform="scale(0.015625)"/>
      <path id="DejaVuSans-Bold-65" d="M 4031 1759 
L 4031 1441 
L 1416 1441 
Q 1456 1047 1700 850 
Q 1944 653 2381 653 
Q 2734 653 3104 758 
Q 3475 863 3866 1075 
L 3866 213 
Q 3469 63 3072 -14 
Q 2675 -91 2278 -91 
Q 1328 -91 801 392 
Q 275 875 275 1747 
Q 275 2603 792 3093 
Q 1309 3584 2216 3584 
Q 3041 3584 3536 3087 
Q 4031 2591 4031 1759 
z
M 2881 2131 
Q 2881 2450 2695 2645 
Q 2509 2841 2209 2841 
Q 1884 2841 1681 2658 
Q 1478 2475 1428 2131 
L 2881 2131 
z
" transform="scale(0.015625)"/>
      <path id="DejaVuSans-Bold-63" d="M 3366 3391 
L 3366 2478 
Q 3138 2634 2908 2709 
Q 2678 2784 2431 2784 
Q 1963 2784 1702 2511 
Q 1441 2238 1441 1747 
Q 1441 1256 1702 982 
Q 1963 709 2431 709 
Q 2694 709 2930 787 
Q 3166 866 3366 1019 
L 3366 103 
Q 3103 6 2833 -42 
Q 2563 -91 2291 -91 
Q 1344 -91 809 395 
Q 275 881 275 1747 
Q 275 2613 809 3098 
Q 1344 3584 2291 3584 
Q 2566 3584 2833 3536 
Q 3100 3488 3366 3391 
z
" transform="scale(0.015625)"/>
      <path id="DejaVuSans-Bold-68" d="M 4056 2131 
L 4056 0 
L 2931 0 
L 2931 347 
L 2931 1625 
Q 2931 2084 2911 2256 
Q 2891 2428 2841 2509 
Q 2775 2619 2662 2680 
Q 2550 2741 2406 2741 
Q 2056 2741 1856 2470 
Q 1656 2200 1656 1722 
L 1656 0 
L 538 0 
L 538 4863 
L 1656 4863 
L 1656 2988 
Q 1909 3294 2193 3439 
Q 2478 3584 2822 3584 
Q 3428 3584 3742 3212 
Q 4056 2841 4056 2131 
z
" transform="scale(0.015625)"/>
      <path id="DejaVuSans-Bold-20" transform="scale(0.015625)"/>
      <path id="DejaVuSans-Bold-52" d="M 2297 2597 
Q 2675 2597 2839 2737 
Q 3003 2878 3003 3200 
Q 3003 3519 2839 3656 
Q 2675 3794 2297 3794 
L 1791 3794 
L 1791 2597 
L 2297 2597 
z
M 1791 1766 
L 1791 0 
L 588 0 
L 588 4666 
L 2425 4666 
Q 3347 4666 3776 4356 
Q 4206 4047 4206 3378 
Q 4206 2916 3982 2619 
Q 3759 2322 3309 2181 
Q 3556 2125 3751 1926 
Q 3947 1728 4147 1325 
L 4800 0 
L 3519 0 
L 2950 1159 
Q 2778 1509 2601 1637 
Q 2425 1766 2131 1766 
L 1791 1766 
z
" transform="scale(0.015625)"/>
      <path id="DejaVuSans-Bold-61" d="M 2106 1575 
Q 1756 1575 1579 1456 
Q 1403 1338 1403 1106 
Q 1403 894 1545 773 
Q 1688 653 1941 653 
Q 2256 653 2472 879 
Q 2688 1106 2688 1447 
L 2688 1575 
L 2106 1575 
z
M 3816 1997 
L 3816 0 
L 2688 0 
L 2688 519 
Q 2463 200 2181 54 
Q 1900 -91 1497 -91 
Q 953 -91 614 226 
Q 275 544 275 1050 
Q 275 1666 698 1953 
Q 1122 2241 2028 2241 
L 2688 2241 
L 2688 2328 
Q 2688 2594 2478 2717 
Q 2269 2841 1825 2841 
Q 1466 2841 1156 2769 
Q 847 2697 581 2553 
L 581 3406 
Q 941 3494 1303 3539 
Q 1666 3584 2028 3584 
Q 2975 3584 3395 3211 
Q 3816 2838 3816 1997 
z
" transform="scale(0.015625)"/>
      <path id="DejaVuSans-Bold-64" d="M 2919 2988 
L 2919 4863 
L 4044 4863 
L 4044 0 
L 2919 0 
L 2919 506 
Q 2688 197 2409 53 
Q 2131 -91 1766 -91 
Q 1119 -91 703 423 
Q 288 938 288 1747 
Q 288 2556 703 3070 
Q 1119 3584 1766 3584 
Q 2128 3584 2408 3439 
Q 2688 3294 2919 2988 
z
M 2181 722 
Q 2541 722 2730 984 
Q 2919 1247 2919 1747 
Q 2919 2247 2730 2509 
Q 2541 2772 2181 2772 
Q 1825 2772 1636 2509 
Q 1447 2247 1447 1747 
Q 1447 1247 1636 984 
Q 1825 722 2181 722 
z
" transform="scale(0.015625)"/>
      <path id="DejaVuSans-Bold-72" d="M 3138 2547 
Q 2991 2616 2845 2648 
Q 2700 2681 2553 2681 
Q 2122 2681 1889 2404 
Q 1656 2128 1656 1613 
L 1656 0 
L 538 0 
L 538 3500 
L 1656 3500 
L 1656 2925 
Q 1872 3269 2151 3426 
Q 2431 3584 2822 3584 
Q 2878 3584 2943 3579 
Q 3009 3575 3134 3559 
L 3138 2547 
z
" transform="scale(0.015625)"/>
     </defs>
     <use xlink:href="#DejaVuSans-Bold-54"/>
     <use xlink:href="#DejaVuSans-Bold-65" transform="translate(54.962891 0)"/>
     <use xlink:href="#DejaVuSans-Bold-63" transform="translate(122.785156 0)"/>
     <use xlink:href="#DejaVuSans-Bold-68" transform="translate(182.0625 0)"/>
     <use xlink:href="#DejaVuSans-Bold-20" transform="translate(253.253906 0)"/>
     <use xlink:href="#DejaVuSans-Bold-52" transform="translate(288.068359 0)"/>
     <use xlink:href="#DejaVuSans-Bold-61" transform="translate(365.070312 0)"/>
     <use xlink:href="#DejaVuSans-Bold-64" transform="translate(432.550781 0)"/>
     <use xlink:href="#DejaVuSans-Bold-61" transform="translate(504.132812 0)"/>
     <use xlink:href="#DejaVuSans-Bold-72" transform="translate(571.613281 0)"/>
    </g>
   </g>
  </g>
 </g>
 <defs>
  <clipPath id="p86f7112326">
   <path d="M 436.851328 238.917187 
C 436.851328 213.436088 431.832107 188.20276 422.080913 164.661294 
C 412.329718 141.119828 398.036186 119.728046 380.018328 101.710188 
C 362.00047 83.69233 340.608687 69.398798 317.067221 59.647603 
C 293.525755 49.896408 268.292427 44.877187 242.811328 44.877187 
C 217.330229 44.877187 192.096901 49.896408 168.555435 59.647603 
C 145.013969 69.398798 123.622186 83.69233 105.604328 101.710188 
C 87.58647 119.728046 73.292938 141.119828 63.541744 164.661294 
C 53.790549 188.20276 48.771328 213.436088 48.771328 238.917187 
C 48.771328 264.398287 53.790549 289.631615 63.541744 313.173081 
C 73.292938 336.714547 87.58647 358.106329 105.604328 376.124187 
C 123.622186 394.142045 145.013969 408.435577 168.555435 418.186772 
C 192.096901 427.937967 217.330229 432.957187 242.811328 432.957187 
C 268.292427 432.957187 293.525755 427.937967 317.067221 418.186772 
C 340.608687 408.435577 362.00047 394.142045 380.018328 376.124187 
C 398.036186 358.106329 412.329718 336.714547 422.080913 313.173081 
C 431.832107 289.631615 436.851328 264.398287 436.851328 238.917187 
M 242.811328 238.917187 
C 242.811328 238.917187 242.811328 238.917187 242.811328 238.917187 
C 242.811328 238.917187 242.811328 238.917187 242.811328 238.917187 
C 242.811328 238.917187 242.811328 238.917187 242.811328 238.917187 
C 242.811328 238.917187 242.811328 238.917187 242.811328 238.917187 
C 242.811328 238.917187 242.811328 238.917187 242.811328 238.917187 
C 242.811328 238.917187 242.811328 238.917187 242.811328 238.917187 
C 242.811328 238.917187 242.811328 238.917187 242.811328 238.917187 
C 242.811328 238.917187 242.811328 238.917187 242.811328 238.917187 
C 242.811328 238.917187 242.811328 238.917187 242.811328 238.917187 
C 242.811328 238.917187 242.811328 238.917187 242.811328 238.917187 
C 242.811328 238.917187 242.811328 238.917187 242.811328 238.917187 
C 242.811328 238.917187 242.811328 238.917187 242.811328 238.917187 
C 242.811328 238.917187 242.811328 238.917187 242.811328 238.917187 
C 242.811328 238.917187 242.811328 238.917187 242.811328 238.917187 
C 242.811328 238.917187 242.811328 238.917187 242.811328 238.917187 
C 242.811328 238.917187 242.811328 238.917187 242.811328 238.917187 
z
"/>
  </clipPath>
 </defs>
</svg>
