<svg xmlns="http://www.w3.org/2000/svg" width="760" height="680" viewBox="0 0 760 680" role="img" aria-label="Top 10 technologies radar chart">
  <defs>
    <filter id="softglow" x="-25%" y="-25%" width="150%" height="150%">
      <feGaussianBlur in="SourceGraphic" stdDeviation="1.8" result="blur"/>
      <feMerge><feMergeNode in="blur"/><feMergeNode in="SourceGraphic"/></feMerge>
    </filter>
  </defs>
  <polygon points="380.0,281.25 414.53,292.47 435.87,321.85 435.87,358.15 414.53,387.53 380.0,398.75 345.47,387.53 324.13,358.15 324.13,321.85 345.47,292.47" fill="none" stroke="#629cf4" stroke-width="0.9" opacity="0.35"/>
  <text x="388.0" y="402.75" font-family="-apple-system,BlinkMacSystemFont,Segoe UI,sans-serif" font-size="10" fill="#c0caf5" opacity="0.82">25%</text>
  <polygon points="380.0,222.5 449.06,244.94 491.75,303.69 491.75,376.31 449.06,435.06 380.0,457.5 310.94,435.06 268.25,376.31 268.25,303.69 310.94,244.94" fill="none" stroke="#629cf4" stroke-width="0.9" opacity="0.35"/>
  <text x="388.0" y="461.5" font-family="-apple-system,BlinkMacSystemFont,Segoe UI,sans-serif" font-size="10" fill="#c0caf5" opacity="0.82">50%</text>
  <polygon points="380.0,163.75 483.6,197.41 547.62,285.54 547.62,394.46 483.6,482.59 380.0,516.25 276.4,482.59 212.38,394.46 212.38,285.54 276.4,197.41" fill="none" stroke="#629cf4" stroke-width="0.9" opacity="0.35"/>
  <text x="388.0" y="520.25" font-family="-apple-system,BlinkMacSystemFont,Segoe UI,sans-serif" font-size="10" fill="#c0caf5" opacity="0.82">75%</text>
  <polygon points="380.0,105.0 518.13,149.88 603.5,267.38 603.5,412.62 518.13,530.12 380.0,575.0 241.87,530.12 156.5,412.62 156.5,267.38 241.87,149.88" fill="none" stroke="#629cf4" stroke-width="0.9" opacity="0.75"/>
  <text x="388.0" y="579.0" font-family="-apple-system,BlinkMacSystemFont,Segoe UI,sans-serif" font-size="10" fill="#c0caf5" opacity="0.82">100%</text>
  <line x1="380" y1="340" x2="380.0" y2="105.0" stroke="#629cf4" stroke-width="0.8" opacity="0.38"/>
  <line x1="380" y1="340" x2="518.13" y2="149.88" stroke="#629cf4" stroke-width="0.8" opacity="0.38"/>
  <line x1="380" y1="340" x2="603.5" y2="267.38" stroke="#629cf4" stroke-width="0.8" opacity="0.38"/>
  <line x1="380" y1="340" x2="603.5" y2="412.62" stroke="#629cf4" stroke-width="0.8" opacity="0.38"/>
  <line x1="380" y1="340" x2="518.13" y2="530.12" stroke="#629cf4" stroke-width="0.8" opacity="0.38"/>
  <line x1="380" y1="340" x2="380.0" y2="575.0" stroke="#629cf4" stroke-width="0.8" opacity="0.38"/>
  <line x1="380" y1="340" x2="241.87" y2="530.12" stroke="#629cf4" stroke-width="0.8" opacity="0.38"/>
  <line x1="380" y1="340" x2="156.5" y2="412.62" stroke="#629cf4" stroke-width="0.8" opacity="0.38"/>
  <line x1="380" y1="340" x2="156.5" y2="267.38" stroke="#629cf4" stroke-width="0.8" opacity="0.38"/>
  <line x1="380" y1="340" x2="241.87" y2="149.88" stroke="#629cf4" stroke-width="0.8" opacity="0.38"/>
  <polygon points="380.0,105.0 501.55,172.7 547.62,285.54 464.93,367.6 432.49,412.25 380.0,429.3 345.47,387.53 324.13,358.15 324.13,321.85 345.47,292.47" fill="#29bda3" fill-opacity="0.26" stroke="#29bda3" stroke-width="2.4" filter="url(#softglow)"/>
  <circle cx="380.0" cy="105.0" r="4.5" fill="#29bda3" stroke="#29bda3" stroke-width="1" filter="url(#softglow)"/>
  <text x="380.0" y="44.0" text-anchor="middle" font-family="-apple-system,BlinkMacSystemFont,Segoe UI,monospace" font-size="12" font-weight="700" fill="#b482ee">Python</text>
  <circle cx="501.55" cy="172.7" r="4.5" fill="#29bda3" stroke="#29bda3" stroke-width="1" filter="url(#softglow)"/>
  <text x="552.22" y="99.96" text-anchor="start" font-family="-apple-system,BlinkMacSystemFont,Segoe UI,monospace" font-size="12" font-weight="700" fill="#b482ee">HTML</text>
  <circle cx="547.62" cy="285.54" r="4.5" fill="#29bda3" stroke="#29bda3" stroke-width="1" filter="url(#softglow)"/>
  <text x="658.66" y="246.46" text-anchor="start" font-family="-apple-system,BlinkMacSystemFont,Segoe UI,monospace" font-size="12" font-weight="700" fill="#b482ee">CSS</text>
  <circle cx="464.93" cy="367.6" r="4.5" fill="#29bda3" stroke="#29bda3" stroke-width="1" filter="url(#softglow)"/>
  <text x="658.66" y="427.54" text-anchor="start" font-family="-apple-system,BlinkMacSystemFont,Segoe UI,monospace" font-size="12" font-weight="700" fill="#b482ee">Flask</text>
  <circle cx="432.49" cy="412.25" r="4.5" fill="#29bda3" stroke="#29bda3" stroke-width="1" filter="url(#softglow)"/>
  <text x="552.22" y="574.04" text-anchor="start" font-family="-apple-system,BlinkMacSystemFont,Segoe UI,monospace" font-size="12" font-weight="700" fill="#b482ee">JavaScript</text>
  <circle cx="380.0" cy="429.3" r="4.5" fill="#29bda3" stroke="#29bda3" stroke-width="1" filter="url(#softglow)"/>
  <text x="380.0" y="630.0" text-anchor="middle" font-family="-apple-system,BlinkMacSystemFont,Segoe UI,monospace" font-size="12" font-weight="700" fill="#b482ee">NumPy</text>
  <circle cx="345.47" cy="387.53" r="4.5" fill="#29bda3" stroke="#29bda3" stroke-width="1" filter="url(#softglow)"/>
  <text x="207.78" y="574.04" text-anchor="end" font-family="-apple-system,BlinkMacSystemFont,Segoe UI,monospace" font-size="12" font-weight="700" fill="#b482ee">C++</text>
  <circle cx="324.13" cy="358.15" r="4.5" fill="#29bda3" stroke="#29bda3" stroke-width="1" filter="url(#softglow)"/>
  <text x="101.34" y="427.54" text-anchor="end" font-family="-apple-system,BlinkMacSystemFont,Segoe UI,monospace" font-size="12" font-weight="700" fill="#b482ee">Docker</text>
  <circle cx="324.13" cy="321.85" r="4.5" fill="#29bda3" stroke="#29bda3" stroke-width="1" filter="url(#softglow)"/>
  <text x="101.34" y="246.46" text-anchor="end" font-family="-apple-system,BlinkMacSystemFont,Segoe UI,monospace" font-size="12" font-weight="700" fill="#b482ee">C#</text>
  <circle cx="345.47" cy="292.47" r="4.5" fill="#29bda3" stroke="#29bda3" stroke-width="1" filter="url(#softglow)"/>
  <text x="207.78" y="99.96" text-anchor="end" font-family="-apple-system,BlinkMacSystemFont,Segoe UI,monospace" font-size="12" font-weight="700" fill="#b482ee">opencv-python</text>
  <circle cx="380" cy="340" r="3" fill="#629cf4" opacity="0.75"/>
</svg>