<?xml version="1.0" encoding="utf-8" standalone="no"?>
<!DOCTYPE svg PUBLIC "-//W3C//DTD SVG 1.1//EN"
  "http://www.w3.org/Graphics/SVG/1.1/DTD/svg11.dtd">
<svg xmlns:xlink="http://www.w3.org/1999/xlink" width="527.561875pt" height="499.381241pt" viewBox="0 0 527.561875 499.381241" xmlns="http://www.w3.org/2000/svg" version="1.1">
 <metadata>
  <rdf:RDF xmlns:dc="http://purl.org/dc/elements/1.1/" xmlns:cc="http://creativecommons.org/ns#" xmlns:rdf="http://www.w3.org/1999/02/22-rdf-syntax-ns#">
   <cc:Work>
    <dc:type rdf:resource="http://purl.org/dc/dcmitype/StillImage"/>
    <dc:date>2026-05-31T07:22:09.798426</dc:date>
    <dc:format>image/svg+xml</dc:format>
    <dc:creator>
     <cc:Agent>
      <dc:title>Matplotlib v3.10.9, https://matplotlib.org/</dc:title>
     </cc:Agent>
    </dc:creator>
   </cc:Work>
  </rdf:RDF>
 </metadata>
 <defs>
  <style type="text/css">*{stroke-linejoin: round; stroke-linecap: butt}</style>
 </defs>
 <g id="figure_1">
  <g id="patch_1">
   <path d="M 0 499.381241 
L 527.561875 499.381241 
L 527.561875 0 
L 0 0 
z
" style="fill: #1a1b27"/>
  </g>
  <g id="axes_1">
   <g id="patch_2">
    <path d="M 477.778203 262.637187 
C 477.778203 233.515931 472.041951 204.677842 460.897728 177.77331 
C 449.753506 150.868777 433.418041 126.421026 412.826203 105.829188 
C 392.234365 85.23735 367.786614 68.901885 340.882081 57.757662 
C 313.977548 46.61344 285.13946 40.877187 256.018203 40.877187 
C 226.896947 40.877187 198.058858 46.61344 171.154325 57.757662 
C 144.249792 68.901885 119.802041 85.23735 99.210203 105.829188 
C 78.618365 126.421026 62.2829 150.868777 51.138678 177.77331 
C 39.994456 204.677842 34.258203 233.515931 34.258203 262.637187 
C 34.258203 291.758444 39.994456 320.596533 51.138678 347.501065 
C 62.2829 374.405598 78.618365 398.853349 99.210203 419.445187 
C 119.802041 440.037025 144.249792 456.37249 171.154325 467.516713 
C 198.058858 478.660935 226.896947 484.397187 256.018203 484.397187 
C 285.13946 484.397187 313.977548 478.660935 340.882081 467.516713 
C 367.786614 456.37249 392.234365 440.037025 412.826203 419.445187 
C 433.418041 398.853349 449.753506 374.405598 460.897728 347.501065 
C 472.041951 320.596533 477.778203 291.758444 477.778203 262.637187 
M 256.018203 262.637187 
C 256.018203 262.637187 256.018203 262.637187 256.018203 262.637187 
C 256.018203 262.637187 256.018203 262.637187 256.018203 262.637187 
C 256.018203 262.637187 256.018203 262.637187 256.018203 262.637187 
C 256.018203 262.637187 256.018203 262.637187 256.018203 262.637187 
C 256.018203 262.637187 256.018203 262.637187 256.018203 262.637187 
C 256.018203 262.637187 256.018203 262.637187 256.018203 262.637187 
C 256.018203 262.637187 256.018203 262.637187 256.018203 262.637187 
C 256.018203 262.637187 256.018203 262.637187 256.018203 262.637187 
C 256.018203 262.637187 256.018203 262.637187 256.018203 262.637187 
C 256.018203 262.637187 256.018203 262.637187 256.018203 262.637187 
C 256.018203 262.637187 256.018203 262.637187 256.018203 262.637187 
C 256.018203 262.637187 256.018203 262.637187 256.018203 262.637187 
C 256.018203 262.637187 256.018203 262.637187 256.018203 262.637187 
C 256.018203 262.637187 256.018203 262.637187 256.018203 262.637187 
C 256.018203 262.637187 256.018203 262.637187 256.018203 262.637187 
C 256.018203 262.637187 256.018203 262.637187 256.018203 262.637187 
z
" style="fill: #1a1b27"/>
   </g>
   <g id="patch_3">
    <path d="M 477.778203 262.637187 
L 385.191681 168.787162 
L 297.820044 133.984349 
L 217.642742 144.529663 
L 177.078855 205.284394 
L 233.842203 262.637187 
L 243.459671 271.761496 
L 253.962375 268.964376 
L 256.018203 262.637187 
L 256.018203 262.637187 
z
" clip-path="url(#p67ea15addd)" style="fill: #7aa2f7; opacity: 0.25; stroke: #7aa2f7; stroke-linejoin: miter"/>
   </g>
   <g id="matplotlib.axis_1">
    <g id="xtick_1">
     <g id="line2d_1">
      <path d="M 256.018203 262.637187 
L 477.778203 262.637187 
" clip-path="url(#p67ea15addd)" style="fill: none; stroke: #414868; stroke-opacity: 0.6; stroke-width: 0.8; stroke-linecap: square"/>
     </g>
     <g id="text_1">
      <!-- TypeScript -->
      <g style="fill: #c0caf5" transform="translate(463.194531 265.6725) scale(0.11 -0.11)">
       <defs>
        <path id="DejaVuSans-54" d="M -19 4666 
L 3928 4666 
L 3928 4134 
L 2272 4134 
L 2272 0 
L 1638 0 
L 1638 4134 
L -19 4134 
L -19 4666 
z
" transform="scale(0.015625)"/>
        <path id="DejaVuSans-79" d="M 2059 -325 
Q 1816 -950 1584 -1140 
Q 1353 -1331 966 -1331 
L 506 -1331 
L 506 -850 
L 844 -850 
Q 1081 -850 1212 -737 
Q 1344 -625 1503 -206 
L 1606 56 
L 191 3500 
L 800 3500 
L 1894 763 
L 2988 3500 
L 3597 3500 
L 2059 -325 
z
" transform="scale(0.015625)"/>
        <path id="DejaVuSans-70" d="M 1159 525 
L 1159 -1331 
L 581 -1331 
L 581 3500 
L 1159 3500 
L 1159 2969 
Q 1341 3281 1617 3432 
Q 1894 3584 2278 3584 
Q 2916 3584 3314 3078 
Q 3713 2572 3713 1747 
Q 3713 922 3314 415 
Q 2916 -91 2278 -91 
Q 1894 -91 1617 61 
Q 1341 213 1159 525 
z
M 3116 1747 
Q 3116 2381 2855 2742 
Q 2594 3103 2138 3103 
Q 1681 3103 1420 2742 
Q 1159 2381 1159 1747 
Q 1159 1113 1420 752 
Q 1681 391 2138 391 
Q 2594 391 2855 752 
Q 3116 1113 3116 1747 
z
" transform="scale(0.015625)"/>
        <path id="DejaVuSans-65" d="M 3597 1894 
L 3597 1613 
L 953 1613 
Q 991 1019 1311 708 
Q 1631 397 2203 397 
Q 2534 397 2845 478 
Q 3156 559 3463 722 
L 3463 178 
Q 3153 47 2828 -22 
Q 2503 -91 2169 -91 
Q 1331 -91 842 396 
Q 353 884 353 1716 
Q 353 2575 817 3079 
Q 1281 3584 2069 3584 
Q 2775 3584 3186 3129 
Q 3597 2675 3597 1894 
z
M 3022 2063 
Q 3016 2534 2758 2815 
Q 2500 3097 2075 3097 
Q 1594 3097 1305 2825 
Q 1016 2553 972 2059 
L 3022 2063 
z
" transform="scale(0.015625)"/>
        <path id="DejaVuSans-53" d="M 3425 4513 
L 3425 3897 
Q 3066 4069 2747 4153 
Q 2428 4238 2131 4238 
Q 1616 4238 1336 4038 
Q 1056 3838 1056 3469 
Q 1056 3159 1242 3001 
Q 1428 2844 1947 2747 
L 2328 2669 
Q 3034 2534 3370 2195 
Q 3706 1856 3706 1288 
Q 3706 609 3251 259 
Q 2797 -91 1919 -91 
Q 1588 -91 1214 -16 
Q 841 59 441 206 
L 441 856 
Q 825 641 1194 531 
Q 1563 422 1919 422 
Q 2459 422 2753 634 
Q 3047 847 3047 1241 
Q 3047 1584 2836 1778 
Q 2625 1972 2144 2069 
L 1759 2144 
Q 1053 2284 737 2584 
Q 422 2884 422 3419 
Q 422 4038 858 4394 
Q 1294 4750 2059 4750 
Q 2388 4750 2728 4690 
Q 3069 4631 3425 4513 
z
" transform="scale(0.015625)"/>
        <path id="DejaVuSans-63" d="M 3122 3366 
L 3122 2828 
Q 2878 2963 2633 3030 
Q 2388 3097 2138 3097 
Q 1578 3097 1268 2742 
Q 959 2388 959 1747 
Q 959 1106 1268 751 
Q 1578 397 2138 397 
Q 2388 397 2633 464 
Q 2878 531 3122 666 
L 3122 134 
Q 2881 22 2623 -34 
Q 2366 -91 2075 -91 
Q 1284 -91 818 406 
Q 353 903 353 1747 
Q 353 2603 823 3093 
Q 1294 3584 2113 3584 
Q 2378 3584 2631 3529 
Q 2884 3475 3122 3366 
z
" transform="scale(0.015625)"/>
        <path id="DejaVuSans-72" d="M 2631 2963 
Q 2534 3019 2420 3045 
Q 2306 3072 2169 3072 
Q 1681 3072 1420 2755 
Q 1159 2438 1159 1844 
L 1159 0 
L 581 0 
L 581 3500 
L 1159 3500 
L 1159 2956 
Q 1341 3275 1631 3429 
Q 1922 3584 2338 3584 
Q 2397 3584 2469 3576 
Q 2541 3569 2628 3553 
L 2631 2963 
z
" transform="scale(0.015625)"/>
        <path id="DejaVuSans-69" d="M 603 3500 
L 1178 3500 
L 1178 0 
L 603 0 
L 603 3500 
z
M 603 4863 
L 1178 4863 
L 1178 4134 
L 603 4134 
L 603 4863 
z
" transform="scale(0.015625)"/>
        <path id="DejaVuSans-74" d="M 1172 4494 
L 1172 3500 
L 2356 3500 
L 2356 3053 
L 1172 3053 
L 1172 1153 
Q 1172 725 1289 603 
Q 1406 481 1766 481 
L 2356 481 
L 2356 0 
L 1766 0 
Q 1100 0 847 248 
Q 594 497 594 1153 
L 594 3053 
L 172 3053 
L 172 3500 
L 594 3500 
L 594 4494 
L 1172 4494 
z
" transform="scale(0.015625)"/>
       </defs>
       <use xlink:href="#DejaVuSans-54"/>
       <use xlink:href="#DejaVuSans-79" transform="translate(45.458984 0)"/>
       <use xlink:href="#DejaVuSans-70" transform="translate(104.638672 0)"/>
       <use xlink:href="#DejaVuSans-65" transform="translate(168.115234 0)"/>
       <use xlink:href="#DejaVuSans-53" transform="translate(229.638672 0)"/>
       <use xlink:href="#DejaVuSans-63" transform="translate(293.115234 0)"/>
       <use xlink:href="#DejaVuSans-72" transform="translate(348.095703 0)"/>
       <use xlink:href="#DejaVuSans-69" transform="translate(389.208984 0)"/>
       <use xlink:href="#DejaVuSans-70" transform="translate(416.992188 0)"/>
       <use xlink:href="#DejaVuSans-74" transform="translate(480.46875 0)"/>
      </g>
     </g>
    </g>
    <g id="xtick_2">
     <g id="line2d_2">
      <path d="M 256.018203 262.637187 
L 435.425812 132.28993 
" clip-path="url(#p67ea15addd)" style="fill: none; stroke: #414868; stroke-opacity: 0.6; stroke-width: 0.8; stroke-linecap: square"/>
     </g>
     <g id="text_2">
      <!-- HTML -->
      <g style="fill: #c0caf5" transform="translate(431.446581 127.096249) scale(0.11 -0.11)">
       <defs>
        <path id="DejaVuSans-48" d="M 628 4666 
L 1259 4666 
L 1259 2753 
L 3553 2753 
L 3553 4666 
L 4184 4666 
L 4184 0 
L 3553 0 
L 3553 2222 
L 1259 2222 
L 1259 0 
L 628 0 
L 628 4666 
z
" transform="scale(0.015625)"/>
        <path id="DejaVuSans-4d" d="M 628 4666 
L 1569 4666 
L 2759 1491 
L 3956 4666 
L 4897 4666 
L 4897 0 
L 4281 0 
L 4281 4097 
L 3078 897 
L 2444 897 
L 1241 4097 
L 1241 0 
L 628 0 
L 628 4666 
z
" transform="scale(0.015625)"/>
        <path id="DejaVuSans-4c" d="M 628 4666 
L 1259 4666 
L 1259 531 
L 3531 531 
L 3531 0 
L 628 0 
L 628 4666 
z
" transform="scale(0.015625)"/>
       </defs>
       <use xlink:href="#DejaVuSans-48"/>
       <use xlink:href="#DejaVuSans-54" transform="translate(75.195312 0)"/>
       <use xlink:href="#DejaVuSans-4d" transform="translate(136.279297 0)"/>
       <use xlink:href="#DejaVuSans-4c" transform="translate(222.558594 0)"/>
      </g>
     </g>
    </g>
    <g id="xtick_3">
     <g id="line2d_3">
      <path d="M 256.018203 262.637187 
L 324.545812 51.730894 
" clip-path="url(#p67ea15addd)" style="fill: none; stroke: #414868; stroke-opacity: 0.6; stroke-width: 0.8; stroke-linecap: square"/>
     </g>
     <g id="text_3">
      <!-- Python -->
      <g style="fill: #c0caf5" transform="translate(309.807675 41.451416) scale(0.11 -0.11)">
       <defs>
        <path id="DejaVuSans-50" d="M 1259 4147 
L 1259 2394 
L 2053 2394 
Q 2494 2394 2734 2622 
Q 2975 2850 2975 3272 
Q 2975 3691 2734 3919 
Q 2494 4147 2053 4147 
L 1259 4147 
z
M 628 4666 
L 2053 4666 
Q 2838 4666 3239 4311 
Q 3641 3956 3641 3272 
Q 3641 2581 3239 2228 
Q 2838 1875 2053 1875 
L 1259 1875 
L 1259 0 
L 628 0 
L 628 4666 
z
" transform="scale(0.015625)"/>
        <path id="DejaVuSans-68" d="M 3513 2113 
L 3513 0 
L 2938 0 
L 2938 2094 
Q 2938 2591 2744 2837 
Q 2550 3084 2163 3084 
Q 1697 3084 1428 2787 
Q 1159 2491 1159 1978 
L 1159 0 
L 581 0 
L 581 4863 
L 1159 4863 
L 1159 2956 
Q 1366 3272 1645 3428 
Q 1925 3584 2291 3584 
Q 2894 3584 3203 3211 
Q 3513 2838 3513 2113 
z
" transform="scale(0.015625)"/>
        <path id="DejaVuSans-6f" d="M 1959 3097 
Q 1497 3097 1228 2736 
Q 959 2375 959 1747 
Q 959 1119 1226 758 
Q 1494 397 1959 397 
Q 2419 397 2687 759 
Q 2956 1122 2956 1747 
Q 2956 2369 2687 2733 
Q 2419 3097 1959 3097 
z
M 1959 3584 
Q 2709 3584 3137 3096 
Q 3566 2609 3566 1747 
Q 3566 888 3137 398 
Q 2709 -91 1959 -91 
Q 1206 -91 779 398 
Q 353 888 353 1747 
Q 353 2609 779 3096 
Q 1206 3584 1959 3584 
z
" transform="scale(0.015625)"/>
        <path id="DejaVuSans-6e" d="M 3513 2113 
L 3513 0 
L 2938 0 
L 2938 2094 
Q 2938 2591 2744 2837 
Q 2550 3084 2163 3084 
Q 1697 3084 1428 2787 
Q 1159 2491 1159 1978 
L 1159 0 
L 581 0 
L 581 3500 
L 1159 3500 
L 1159 2956 
Q 1366 3272 1645 3428 
Q 1925 3584 2291 3584 
Q 2894 3584 3203 3211 
Q 3513 2838 3513 2113 
z
" transform="scale(0.015625)"/>
       </defs>
       <use xlink:href="#DejaVuSans-50"/>
       <use xlink:href="#DejaVuSans-79" transform="translate(60.302734 0)"/>
       <use xlink:href="#DejaVuSans-74" transform="translate(119.482422 0)"/>
       <use xlink:href="#DejaVuSans-68" transform="translate(158.691406 0)"/>
       <use xlink:href="#DejaVuSans-6f" transform="translate(222.070312 0)"/>
       <use xlink:href="#DejaVuSans-6e" transform="translate(283.251953 0)"/>
      </g>
     </g>
    </g>
    <g id="xtick_4">
     <g id="line2d_4">
      <path d="M 256.018203 262.637187 
L 187.490594 51.730894 
" clip-path="url(#p67ea15addd)" style="fill: none; stroke: #414868; stroke-opacity: 0.6; stroke-width: 0.8; stroke-linecap: square"/>
     </g>
     <g id="text_4">
      <!-- Dart -->
      <g style="fill: #c0caf5" transform="translate(171.1417 41.451416) scale(0.11 -0.11)">
       <defs>
        <path id="DejaVuSans-44" d="M 1259 4147 
L 1259 519 
L 2022 519 
Q 2988 519 3436 956 
Q 3884 1394 3884 2338 
Q 3884 3275 3436 3711 
Q 2988 4147 2022 4147 
L 1259 4147 
z
M 628 4666 
L 1925 4666 
Q 3281 4666 3915 4102 
Q 4550 3538 4550 2338 
Q 4550 1131 3912 565 
Q 3275 0 1925 0 
L 628 0 
L 628 4666 
z
" transform="scale(0.015625)"/>
        <path id="DejaVuSans-61" d="M 2194 1759 
Q 1497 1759 1228 1600 
Q 959 1441 959 1056 
Q 959 750 1161 570 
Q 1363 391 1709 391 
Q 2188 391 2477 730 
Q 2766 1069 2766 1631 
L 2766 1759 
L 2194 1759 
z
M 3341 1997 
L 3341 0 
L 2766 0 
L 2766 531 
Q 2569 213 2275 61 
Q 1981 -91 1556 -91 
Q 1019 -91 701 211 
Q 384 513 384 1019 
Q 384 1609 779 1909 
Q 1175 2209 1959 2209 
L 2766 2209 
L 2766 2266 
Q 2766 2663 2505 2880 
Q 2244 3097 1772 3097 
Q 1472 3097 1187 3025 
Q 903 2953 641 2809 
L 641 3341 
Q 956 3463 1253 3523 
Q 1550 3584 1831 3584 
Q 2591 3584 2966 3190 
Q 3341 2797 3341 1997 
z
" transform="scale(0.015625)"/>
       </defs>
       <use xlink:href="#DejaVuSans-44"/>
       <use xlink:href="#DejaVuSans-61" transform="translate(77.001953 0)"/>
       <use xlink:href="#DejaVuSans-72" transform="translate(138.28125 0)"/>
       <use xlink:href="#DejaVuSans-74" transform="translate(179.394531 0)"/>
      </g>
     </g>
    </g>
    <g id="xtick_5">
     <g id="line2d_5">
      <path d="M 256.018203 262.637187 
L 76.610594 132.28993 
" clip-path="url(#p67ea15addd)" style="fill: none; stroke: #414868; stroke-opacity: 0.6; stroke-width: 0.8; stroke-linecap: square"/>
     </g>
     <g id="text_5">
      <!-- C# -->
      <g style="fill: #c0caf5" transform="translate(56.834982 127.096249) scale(0.11 -0.11)">
       <defs>
        <path id="DejaVuSans-43" d="M 4122 4306 
L 4122 3641 
Q 3803 3938 3442 4084 
Q 3081 4231 2675 4231 
Q 1875 4231 1450 3742 
Q 1025 3253 1025 2328 
Q 1025 1406 1450 917 
Q 1875 428 2675 428 
Q 3081 428 3442 575 
Q 3803 722 4122 1019 
L 4122 359 
Q 3791 134 3420 21 
Q 3050 -91 2638 -91 
Q 1578 -91 968 557 
Q 359 1206 359 2328 
Q 359 3453 968 4101 
Q 1578 4750 2638 4750 
Q 3056 4750 3426 4639 
Q 3797 4528 4122 4306 
z
" transform="scale(0.015625)"/>
        <path id="DejaVuSans-23" d="M 3272 2816 
L 2363 2816 
L 2100 1772 
L 3016 1772 
L 3272 2816 
z
M 2803 4594 
L 2478 3297 
L 3391 3297 
L 3719 4594 
L 4219 4594 
L 3897 3297 
L 4872 3297 
L 4872 2816 
L 3775 2816 
L 3519 1772 
L 4513 1772 
L 4513 1294 
L 3397 1294 
L 3072 0 
L 2572 0 
L 2894 1294 
L 1978 1294 
L 1656 0 
L 1153 0 
L 1478 1294 
L 494 1294 
L 494 1772 
L 1594 1772 
L 1856 2816 
L 850 2816 
L 850 3297 
L 1978 3297 
L 2297 4594 
L 2803 4594 
z
" transform="scale(0.015625)"/>
       </defs>
       <use xlink:href="#DejaVuSans-43"/>
       <use xlink:href="#DejaVuSans-23" transform="translate(69.824219 0)"/>
      </g>
     </g>
    </g>
    <g id="xtick_6">
     <g id="line2d_6">
      <path d="M 256.018203 262.637187 
L 34.258203 262.637187 
" clip-path="url(#p67ea15addd)" style="fill: none; stroke: #414868; stroke-opacity: 0.6; stroke-width: 0.8; stroke-linecap: square"/>
     </g>
     <g id="text_6">
      <!-- C++ -->
      <g style="fill: #c0caf5" transform="translate(7.2 265.6725) scale(0.11 -0.11)">
       <defs>
        <path id="DejaVuSans-2b" d="M 2944 4013 
L 2944 2272 
L 4684 2272 
L 4684 1741 
L 2944 1741 
L 2944 0 
L 2419 0 
L 2419 1741 
L 678 1741 
L 678 2272 
L 2419 2272 
L 2419 4013 
L 2944 4013 
z
" transform="scale(0.015625)"/>
       </defs>
       <use xlink:href="#DejaVuSans-43"/>
       <use xlink:href="#DejaVuSans-2b" transform="translate(69.824219 0)"/>
       <use xlink:href="#DejaVuSans-2b" transform="translate(153.613281 0)"/>
      </g>
     </g>
    </g>
    <g id="xtick_7">
     <g id="line2d_7">
      <path d="M 256.018203 262.637187 
L 76.610594 392.984445 
" clip-path="url(#p67ea15addd)" style="fill: none; stroke: #414868; stroke-opacity: 0.6; stroke-width: 0.8; stroke-linecap: square"/>
     </g>
     <g id="text_7">
      <!-- CSS -->
      <g style="fill: #c0caf5" transform="translate(54.460528 404.248751) scale(0.11 -0.11)">
       <use xlink:href="#DejaVuSans-43"/>
       <use xlink:href="#DejaVuSans-53" transform="translate(69.824219 0)"/>
       <use xlink:href="#DejaVuSans-53" transform="translate(133.300781 0)"/>
      </g>
     </g>
    </g>
    <g id="xtick_8">
     <g id="line2d_8">
      <path d="M 256.018203 262.637187 
L 187.490594 473.543481 
" clip-path="url(#p67ea15addd)" style="fill: none; stroke: #414868; stroke-opacity: 0.6; stroke-width: 0.8; stroke-linecap: square"/>
     </g>
     <g id="text_8">
      <!-- CMake -->
      <g style="fill: #c0caf5" transform="translate(164.838185 489.893584) scale(0.11 -0.11)">
       <defs>
        <path id="DejaVuSans-6b" d="M 581 4863 
L 1159 4863 
L 1159 1991 
L 2875 3500 
L 3609 3500 
L 1753 1863 
L 3688 0 
L 2938 0 
L 1159 1709 
L 1159 0 
L 581 0 
L 581 4863 
z
" transform="scale(0.015625)"/>
       </defs>
       <use xlink:href="#DejaVuSans-43"/>
       <use xlink:href="#DejaVuSans-4d" transform="translate(69.824219 0)"/>
       <use xlink:href="#DejaVuSans-61" transform="translate(156.103516 0)"/>
       <use xlink:href="#DejaVuSans-6b" transform="translate(217.382812 0)"/>
       <use xlink:href="#DejaVuSans-65" transform="translate(271.667969 0)"/>
      </g>
     </g>
    </g>
    <g id="xtick_9">
     <g id="line2d_9">
      <path d="M 256.018203 262.637187 
L 324.545812 473.543481 
" clip-path="url(#p67ea15addd)" style="fill: none; stroke: #414868; stroke-opacity: 0.6; stroke-width: 0.8; stroke-linecap: square"/>
     </g>
     <g id="text_9">
      <!-- Swift -->
      <g style="fill: #c0caf5" transform="translate(315.358378 489.893584) scale(0.11 -0.11)">
       <defs>
        <path id="DejaVuSans-77" d="M 269 3500 
L 844 3500 
L 1563 769 
L 2278 3500 
L 2956 3500 
L 3675 769 
L 4391 3500 
L 4966 3500 
L 4050 0 
L 3372 0 
L 2619 2869 
L 1863 0 
L 1184 0 
L 269 3500 
z
" transform="scale(0.015625)"/>
        <path id="DejaVuSans-66" d="M 2375 4863 
L 2375 4384 
L 1825 4384 
Q 1516 4384 1395 4259 
Q 1275 4134 1275 3809 
L 1275 3500 
L 2222 3500 
L 2222 3053 
L 1275 3053 
L 1275 0 
L 697 0 
L 697 3053 
L 147 3053 
L 147 3500 
L 697 3500 
L 697 3744 
Q 697 4328 969 4595 
Q 1241 4863 1831 4863 
L 2375 4863 
z
" transform="scale(0.015625)"/>
       </defs>
       <use xlink:href="#DejaVuSans-53"/>
       <use xlink:href="#DejaVuSans-77" transform="translate(63.476562 0)"/>
       <use xlink:href="#DejaVuSans-69" transform="translate(145.263672 0)"/>
       <use xlink:href="#DejaVuSans-66" transform="translate(173.046875 0)"/>
       <use xlink:href="#DejaVuSans-74" transform="translate(206.501953 0)"/>
      </g>
     </g>
    </g>
    <g id="xtick_10">
     <g id="line2d_10">
      <path d="M 256.018203 262.637187 
L 435.425812 392.984445 
" clip-path="url(#p67ea15addd)" style="fill: none; stroke: #414868; stroke-opacity: 0.6; stroke-width: 0.8; stroke-linecap: square"/>
     </g>
     <g id="text_10">
      <!-- Dockerfile -->
      <g style="fill: #c0caf5" transform="translate(419.120565 404.248751) scale(0.11 -0.11)">
       <defs>
        <path id="DejaVuSans-6c" d="M 603 4863 
L 1178 4863 
L 1178 0 
L 603 0 
L 603 4863 
z
" transform="scale(0.015625)"/>
       </defs>
       <use xlink:href="#DejaVuSans-44"/>
       <use xlink:href="#DejaVuSans-6f" transform="translate(77.001953 0)"/>
       <use xlink:href="#DejaVuSans-63" transform="translate(138.183594 0)"/>
       <use xlink:href="#DejaVuSans-6b" transform="translate(193.164062 0)"/>
       <use xlink:href="#DejaVuSans-65" transform="translate(247.449219 0)"/>
       <use xlink:href="#DejaVuSans-72" transform="translate(308.972656 0)"/>
       <use xlink:href="#DejaVuSans-66" transform="translate(350.085938 0)"/>
       <use xlink:href="#DejaVuSans-69" transform="translate(385.291016 0)"/>
       <use xlink:href="#DejaVuSans-6c" transform="translate(413.074219 0)"/>
       <use xlink:href="#DejaVuSans-65" transform="translate(440.857422 0)"/>
      </g>
     </g>
    </g>
   </g>
   <g id="matplotlib.axis_2">
    <g id="ytick_1">
     <g id="line2d_11">
      <path d="M 300.370203 262.637187 
C 300.370203 256.812936 299.222953 251.045318 296.994108 245.664412 
C 294.765264 240.283505 291.498171 235.393955 287.379803 231.275588 
C 283.261436 227.15722 278.371885 223.890127 272.990979 221.661282 
C 267.610072 219.432438 261.842454 218.285187 256.018203 218.285187 
C 250.193952 218.285187 244.426334 219.432438 239.045428 221.661282 
C 233.664521 223.890127 228.774971 227.15722 224.656603 231.275588 
C 220.538236 235.393955 217.271143 240.283505 215.042298 245.664412 
C 212.813454 251.045318 211.666203 256.812936 211.666203 262.637187 
C 211.666203 268.461439 212.813454 274.229057 215.042298 279.609963 
C 217.271143 284.99087 220.538236 289.88042 224.656603 293.998787 
C 228.774971 298.117155 233.664521 301.384248 239.045428 303.613093 
C 244.426334 305.841937 250.193952 306.989187 256.018203 306.989187 
C 261.842454 306.989187 267.610072 305.841937 272.990979 303.613093 
C 278.371885 301.384248 283.261436 298.117155 287.379803 293.998787 
C 291.498171 289.88042 294.765264 284.99087 296.994108 279.609963 
C 299.222953 274.229057 300.370203 268.461439 300.370203 262.637187 
" clip-path="url(#p67ea15addd)" style="fill: none; stroke: #414868; stroke-opacity: 0.6; stroke-width: 0.8; stroke-linecap: square"/>
     </g>
     <g id="text_11">
      <!-- 2 -->
      <g style="fill: #c0caf5" transform="translate(296.994108 243.584724) scale(0.1 -0.1)">
       <defs>
        <path id="DejaVuSans-32" d="M 1228 531 
L 3431 531 
L 3431 0 
L 469 0 
L 469 531 
Q 828 903 1448 1529 
Q 2069 2156 2228 2338 
Q 2531 2678 2651 2914 
Q 2772 3150 2772 3378 
Q 2772 3750 2511 3984 
Q 2250 4219 1831 4219 
Q 1534 4219 1204 4116 
Q 875 4013 500 3803 
L 500 4441 
Q 881 4594 1212 4672 
Q 1544 4750 1819 4750 
Q 2544 4750 2975 4387 
Q 3406 4025 3406 3419 
Q 3406 3131 3298 2873 
Q 3191 2616 2906 2266 
Q 2828 2175 2409 1742 
Q 1991 1309 1228 531 
z
" transform="scale(0.015625)"/>
       </defs>
       <use xlink:href="#DejaVuSans-32"/>
      </g>
     </g>
    </g>
    <g id="ytick_2">
     <g id="line2d_12">
      <path d="M 344.722203 262.637187 
C 344.722203 250.988685 342.427702 239.453449 337.970013 228.691636 
C 333.512324 217.929823 326.978138 208.150723 318.741403 199.913988 
C 310.504668 191.677252 300.725567 185.143066 289.963754 180.685377 
C 279.201941 176.227689 267.666706 173.933187 256.018203 173.933187 
C 244.369701 173.933187 232.834465 176.227689 222.072652 180.685377 
C 211.310839 185.143066 201.531738 191.677252 193.295003 199.913988 
C 185.058268 208.150723 178.524082 217.929823 174.066393 228.691636 
C 169.608704 239.453449 167.314203 250.988685 167.314203 262.637187 
C 167.314203 274.28569 169.608704 285.820926 174.066393 296.582739 
C 178.524082 307.344552 185.058268 317.123652 193.295003 325.360387 
C 201.531738 333.597123 211.310839 340.131309 222.072652 344.588998 
C 232.834465 349.046686 244.369701 351.341187 256.018203 351.341187 
C 267.666706 351.341187 279.201941 349.046686 289.963754 344.588998 
C 300.725567 340.131309 310.504668 333.597123 318.741403 325.360387 
C 326.978138 317.123652 333.512324 307.344552 337.970013 296.582739 
C 342.427702 285.820926 344.722203 274.28569 344.722203 262.637187 
" clip-path="url(#p67ea15addd)" style="fill: none; stroke: #414868; stroke-opacity: 0.6; stroke-width: 0.8; stroke-linecap: square"/>
     </g>
     <g id="text_12">
      <!-- 4 -->
      <g style="fill: #c0caf5" transform="translate(337.970013 226.611949) scale(0.1 -0.1)">
       <defs>
        <path id="DejaVuSans-34" d="M 2419 4116 
L 825 1625 
L 2419 1625 
L 2419 4116 
z
M 2253 4666 
L 3047 4666 
L 3047 1625 
L 3713 1625 
L 3713 1100 
L 3047 1100 
L 3047 0 
L 2419 0 
L 2419 1100 
L 313 1100 
L 313 1709 
L 2253 4666 
z
" transform="scale(0.015625)"/>
       </defs>
       <use xlink:href="#DejaVuSans-34"/>
      </g>
     </g>
    </g>
    <g id="ytick_3">
     <g id="line2d_13">
      <path d="M 389.074203 262.637187 
C 389.074203 245.164434 385.632452 227.86158 378.945918 211.718861 
C 372.259385 195.576141 362.458106 180.90749 350.103003 168.552388 
C 337.7479 156.197285 323.07925 146.396006 306.93653 139.709472 
C 290.79381 133.022939 273.490957 129.581187 256.018203 129.581187 
C 238.545449 129.581187 221.242596 133.022939 205.099876 139.709472 
C 188.957157 146.396006 174.288506 156.197285 161.933403 168.552388 
C 149.578301 180.90749 139.777021 195.576141 133.090488 211.718861 
C 126.403955 227.86158 122.962203 245.164434 122.962203 262.637187 
C 122.962203 280.109941 126.403955 297.412795 133.090488 313.555514 
C 139.777021 329.698234 149.578301 344.366885 161.933403 356.721987 
C 174.288506 369.07709 188.957157 378.878369 205.099876 385.564903 
C 221.242596 392.251436 238.545449 395.693187 256.018203 395.693187 
C 273.490957 395.693187 290.79381 392.251436 306.93653 385.564903 
C 323.07925 378.878369 337.7479 369.07709 350.103003 356.721987 
C 362.458106 344.366885 372.259385 329.698234 378.945918 313.555514 
C 385.632452 297.412795 389.074203 280.109941 389.074203 262.637187 
" clip-path="url(#p67ea15addd)" style="fill: none; stroke: #414868; stroke-opacity: 0.6; stroke-width: 0.8; stroke-linecap: square"/>
     </g>
     <g id="text_13">
      <!-- 6 -->
      <g style="fill: #c0caf5" transform="translate(378.945918 209.639173) scale(0.1 -0.1)">
       <defs>
        <path id="DejaVuSans-36" d="M 2113 2584 
Q 1688 2584 1439 2293 
Q 1191 2003 1191 1497 
Q 1191 994 1439 701 
Q 1688 409 2113 409 
Q 2538 409 2786 701 
Q 3034 994 3034 1497 
Q 3034 2003 2786 2293 
Q 2538 2584 2113 2584 
z
M 3366 4563 
L 3366 3988 
Q 3128 4100 2886 4159 
Q 2644 4219 2406 4219 
Q 1781 4219 1451 3797 
Q 1122 3375 1075 2522 
Q 1259 2794 1537 2939 
Q 1816 3084 2150 3084 
Q 2853 3084 3261 2657 
Q 3669 2231 3669 1497 
Q 3669 778 3244 343 
Q 2819 -91 2113 -91 
Q 1303 -91 875 529 
Q 447 1150 447 2328 
Q 447 3434 972 4092 
Q 1497 4750 2381 4750 
Q 2619 4750 2861 4703 
Q 3103 4656 3366 4563 
z
" transform="scale(0.015625)"/>
       </defs>
       <use xlink:href="#DejaVuSans-36"/>
      </g>
     </g>
    </g>
    <g id="ytick_4">
     <g id="line2d_14">
      <path d="M 433.426203 262.637187 
C 433.426203 239.340182 428.837201 216.269711 419.921823 194.746085 
C 411.006445 173.222459 397.938073 153.664258 381.464603 137.190788 
C 364.991133 120.717317 345.432932 107.648945 323.909305 98.733567 
C 302.385679 89.81819 279.315208 85.229187 256.018203 85.229187 
C 232.721198 85.229187 209.650727 89.81819 188.127101 98.733567 
C 166.603475 107.648945 147.045274 120.717317 130.571803 137.190788 
C 114.098333 153.664258 101.029961 173.222459 92.114583 194.746085 
C 83.199205 216.269711 78.610203 239.340182 78.610203 262.637187 
C 78.610203 285.934193 83.199205 309.004664 92.114583 330.52829 
C 101.029961 352.051916 114.098333 371.610117 130.571803 388.083587 
C 147.045274 404.557058 166.603475 417.62543 188.127101 426.540808 
C 209.650727 435.456185 232.721198 440.045187 256.018203 440.045187 
C 279.315208 440.045187 302.385679 435.456185 323.909305 426.540808 
C 345.432932 417.62543 364.991133 404.557058 381.464603 388.083587 
C 397.938073 371.610117 411.006445 352.051916 419.921823 330.52829 
C 428.837201 309.004664 433.426203 285.934193 433.426203 262.637187 
" clip-path="url(#p67ea15addd)" style="fill: none; stroke: #414868; stroke-opacity: 0.6; stroke-width: 0.8; stroke-linecap: square"/>
     </g>
     <g id="text_14">
      <!-- 8 -->
      <g style="fill: #c0caf5" transform="translate(419.921823 192.666398) scale(0.1 -0.1)">
       <defs>
        <path id="DejaVuSans-38" d="M 2034 2216 
Q 1584 2216 1326 1975 
Q 1069 1734 1069 1313 
Q 1069 891 1326 650 
Q 1584 409 2034 409 
Q 2484 409 2743 651 
Q 3003 894 3003 1313 
Q 3003 1734 2745 1975 
Q 2488 2216 2034 2216 
z
M 1403 2484 
Q 997 2584 770 2862 
Q 544 3141 544 3541 
Q 544 4100 942 4425 
Q 1341 4750 2034 4750 
Q 2731 4750 3128 4425 
Q 3525 4100 3525 3541 
Q 3525 3141 3298 2862 
Q 3072 2584 2669 2484 
Q 3125 2378 3379 2068 
Q 3634 1759 3634 1313 
Q 3634 634 3220 271 
Q 2806 -91 2034 -91 
Q 1263 -91 848 271 
Q 434 634 434 1313 
Q 434 1759 690 2068 
Q 947 2378 1403 2484 
z
M 1172 3481 
Q 1172 3119 1398 2916 
Q 1625 2713 2034 2713 
Q 2441 2713 2670 2916 
Q 2900 3119 2900 3481 
Q 2900 3844 2670 4047 
Q 2441 4250 2034 4250 
Q 1625 4250 1398 4047 
Q 1172 3844 1172 3481 
z
" transform="scale(0.015625)"/>
       </defs>
       <use xlink:href="#DejaVuSans-38"/>
      </g>
     </g>
    </g>
    <g id="ytick_5">
     <g id="line2d_15">
      <path d="M 477.778203 262.637187 
C 477.778203 233.515931 472.041951 204.677842 460.897728 177.77331 
C 449.753506 150.868777 433.418041 126.421026 412.826203 105.829188 
C 392.234365 85.23735 367.786614 68.901885 340.882081 57.757662 
C 313.977548 46.61344 285.13946 40.877187 256.018203 40.877187 
C 226.896947 40.877187 198.058858 46.61344 171.154325 57.757662 
C 144.249792 68.901885 119.802041 85.23735 99.210203 105.829188 
C 78.618365 126.421026 62.2829 150.868777 51.138678 177.77331 
C 39.994456 204.677842 34.258203 233.515931 34.258203 262.637187 
C 34.258203 291.758444 39.994456 320.596533 51.138678 347.501065 
C 62.2829 374.405598 78.618365 398.853349 99.210203 419.445187 
C 119.802041 440.037025 144.249792 456.37249 171.154325 467.516713 
C 198.058858 478.660935 226.896947 484.397187 256.018203 484.397187 
C 285.13946 484.397187 313.977548 478.660935 340.882081 467.516713 
C 367.786614 456.37249 392.234365 440.037025 412.826203 419.445187 
C 433.418041 398.853349 449.753506 374.405598 460.897728 347.501065 
C 472.041951 320.596533 477.778203 291.758444 477.778203 262.637187 
" clip-path="url(#p67ea15addd)" style="fill: none; stroke: #414868; stroke-opacity: 0.6; stroke-width: 0.8; stroke-linecap: square"/>
     </g>
     <g id="text_15">
      <!-- 10 -->
      <g style="fill: #c0caf5" transform="translate(460.897728 175.693622) scale(0.1 -0.1)">
       <defs>
        <path id="DejaVuSans-31" d="M 794 531 
L 1825 531 
L 1825 4091 
L 703 3866 
L 703 4441 
L 1819 4666 
L 2450 4666 
L 2450 531 
L 3481 531 
L 3481 0 
L 794 0 
L 794 531 
z
" transform="scale(0.015625)"/>
        <path id="DejaVuSans-30" d="M 2034 4250 
Q 1547 4250 1301 3770 
Q 1056 3291 1056 2328 
Q 1056 1369 1301 889 
Q 1547 409 2034 409 
Q 2525 409 2770 889 
Q 3016 1369 3016 2328 
Q 3016 3291 2770 3770 
Q 2525 4250 2034 4250 
z
M 2034 4750 
Q 2819 4750 3233 4129 
Q 3647 3509 3647 2328 
Q 3647 1150 3233 529 
Q 2819 -91 2034 -91 
Q 1250 -91 836 529 
Q 422 1150 422 2328 
Q 422 3509 836 4129 
Q 1250 4750 2034 4750 
z
" transform="scale(0.015625)"/>
       </defs>
       <use xlink:href="#DejaVuSans-31"/>
       <use xlink:href="#DejaVuSans-30" transform="translate(63.623047 0)"/>
      </g>
     </g>
    </g>
   </g>
   <g id="line2d_16">
    <path d="M 477.778203 262.637187 
L 385.191681 168.787162 
L 297.820044 133.984349 
L 217.642742 144.529663 
L 177.078855 205.284394 
L 233.842203 262.637187 
L 243.459671 271.761496 
L 253.962375 268.964376 
L 256.018203 262.637187 
L 256.018203 262.637187 
L 477.778203 262.637187 
" clip-path="url(#p67ea15addd)" style="fill: none; stroke: #7aa2f7; stroke-width: 2.5; stroke-linecap: square"/>
   </g>
   <g id="patch_4">
    <path d="M 477.778203 262.637187 
C 477.778203 233.515931 472.041951 204.677842 460.897728 177.77331 
C 449.753506 150.868777 433.418041 126.421026 412.826203 105.829188 
C 392.234365 85.23735 367.786614 68.901885 340.882081 57.757662 
C 313.977548 46.61344 285.13946 40.877187 256.018203 40.877187 
C 226.896947 40.877187 198.058858 46.61344 171.154325 57.757662 
C 144.249792 68.901885 119.802041 85.23735 99.210203 105.829188 
C 78.618365 126.421026 62.2829 150.868777 51.138678 177.77331 
C 39.994456 204.677842 34.258203 233.515931 34.258203 262.637187 
C 34.258203 291.758444 39.994456 320.596533 51.138678 347.501065 
C 62.2829 374.405598 78.618365 398.853349 99.210203 419.445187 
C 119.802041 440.037025 144.249792 456.37249 171.154325 467.516713 
C 198.058858 478.660935 226.896947 484.397187 256.018203 484.397187 
C 285.13946 484.397187 313.977548 478.660935 340.882081 467.516713 
C 367.786614 456.37249 392.234365 440.037025 412.826203 419.445187 
C 433.418041 398.853349 449.753506 374.405598 460.897728 347.501065 
C 472.041951 320.596533 477.778203 291.758444 477.778203 262.637187 
" style="fill: none; stroke: #414868; stroke-width: 0.8; stroke-linejoin: miter; stroke-linecap: square"/>
   </g>
   <g id="text_16">
    <!-- Tech Radar -->
    <g style="fill: #c0caf5" transform="translate(206.505547 20.877187) scale(0.18 -0.18)">
     <defs>
      <path id="DejaVuSans-20" transform="scale(0.015625)"/>
      <path id="DejaVuSans-52" d="M 2841 2188 
Q 3044 2119 3236 1894 
Q 3428 1669 3622 1275 
L 4263 0 
L 3584 0 
L 2988 1197 
Q 2756 1666 2539 1819 
Q 2322 1972 1947 1972 
L 1259 1972 
L 1259 0 
L 628 0 
L 628 4666 
L 2053 4666 
Q 2853 4666 3247 4331 
Q 3641 3997 3641 3322 
Q 3641 2881 3436 2590 
Q 3231 2300 2841 2188 
z
M 1259 4147 
L 1259 2491 
L 2053 2491 
Q 2509 2491 2742 2702 
Q 2975 2913 2975 3322 
Q 2975 3731 2742 3939 
Q 2509 4147 2053 4147 
L 1259 4147 
z
" transform="scale(0.015625)"/>
      <path id="DejaVuSans-64" d="M 2906 2969 
L 2906 4863 
L 3481 4863 
L 3481 0 
L 2906 0 
L 2906 525 
Q 2725 213 2448 61 
Q 2172 -91 1784 -91 
Q 1150 -91 751 415 
Q 353 922 353 1747 
Q 353 2572 751 3078 
Q 1150 3584 1784 3584 
Q 2172 3584 2448 3432 
Q 2725 3281 2906 2969 
z
M 947 1747 
Q 947 1113 1208 752 
Q 1469 391 1925 391 
Q 2381 391 2643 752 
Q 2906 1113 2906 1747 
Q 2906 2381 2643 2742 
Q 2381 3103 1925 3103 
Q 1469 3103 1208 2742 
Q 947 2381 947 1747 
z
" transform="scale(0.015625)"/>
     </defs>
     <use xlink:href="#DejaVuSans-54"/>
     <use xlink:href="#DejaVuSans-65" transform="translate(44.083984 0)"/>
     <use xlink:href="#DejaVuSans-63" transform="translate(105.607422 0)"/>
     <use xlink:href="#DejaVuSans-68" transform="translate(160.587891 0)"/>
     <use xlink:href="#DejaVuSans-20" transform="translate(223.966797 0)"/>
     <use xlink:href="#DejaVuSans-52" transform="translate(255.753906 0)"/>
     <use xlink:href="#DejaVuSans-61" transform="translate(322.986328 0)"/>
     <use xlink:href="#DejaVuSans-64" transform="translate(384.265625 0)"/>
     <use xlink:href="#DejaVuSans-61" transform="translate(447.742188 0)"/>
     <use xlink:href="#DejaVuSans-72" transform="translate(509.021484 0)"/>
    </g>
   </g>
  </g>
 </g>
 <defs>
  <clipPath id="p67ea15addd">
   <path d="M 477.778203 262.637187 
C 477.778203 233.515931 472.041951 204.677842 460.897728 177.77331 
C 449.753506 150.868777 433.418041 126.421026 412.826203 105.829188 
C 392.234365 85.23735 367.786614 68.901885 340.882081 57.757662 
C 313.977548 46.61344 285.13946 40.877187 256.018203 40.877187 
C 226.896947 40.877187 198.058858 46.61344 171.154325 57.757662 
C 144.249792 68.901885 119.802041 85.23735 99.210203 105.829188 
C 78.618365 126.421026 62.2829 150.868777 51.138678 177.77331 
C 39.994456 204.677842 34.258203 233.515931 34.258203 262.637187 
C 34.258203 291.758444 39.994456 320.596533 51.138678 347.501065 
C 62.2829 374.405598 78.618365 398.853349 99.210203 419.445187 
C 119.802041 440.037025 144.249792 456.37249 171.154325 467.516713 
C 198.058858 478.660935 226.896947 484.397187 256.018203 484.397187 
C 285.13946 484.397187 313.977548 478.660935 340.882081 467.516713 
C 367.786614 456.37249 392.234365 440.037025 412.826203 419.445187 
C 433.418041 398.853349 449.753506 374.405598 460.897728 347.501065 
C 472.041951 320.596533 477.778203 291.758444 477.778203 262.637187 
M 256.018203 262.637187 
C 256.018203 262.637187 256.018203 262.637187 256.018203 262.637187 
C 256.018203 262.637187 256.018203 262.637187 256.018203 262.637187 
C 256.018203 262.637187 256.018203 262.637187 256.018203 262.637187 
C 256.018203 262.637187 256.018203 262.637187 256.018203 262.637187 
C 256.018203 262.637187 256.018203 262.637187 256.018203 262.637187 
C 256.018203 262.637187 256.018203 262.637187 256.018203 262.637187 
C 256.018203 262.637187 256.018203 262.637187 256.018203 262.637187 
C 256.018203 262.637187 256.018203 262.637187 256.018203 262.637187 
C 256.018203 262.637187 256.018203 262.637187 256.018203 262.637187 
C 256.018203 262.637187 256.018203 262.637187 256.018203 262.637187 
C 256.018203 262.637187 256.018203 262.637187 256.018203 262.637187 
C 256.018203 262.637187 256.018203 262.637187 256.018203 262.637187 
C 256.018203 262.637187 256.018203 262.637187 256.018203 262.637187 
C 256.018203 262.637187 256.018203 262.637187 256.018203 262.637187 
C 256.018203 262.637187 256.018203 262.637187 256.018203 262.637187 
C 256.018203 262.637187 256.018203 262.637187 256.018203 262.637187 
z
"/>
  </clipPath>
 </defs>
</svg>
